<svg xmlns="http://www.w3.org/2000/svg" viewBox="0 0 355.29 176.5"><defs><style>.cls-1{opacity:0.85;}.cls-2{fill:#ffe2db;}.cls-3{fill:#fff4f1;}.cls-4{fill:#ffd3c8;}.cls-5{fill:#ffc4b5;}.cls-6{fill:#ff8d70;}.cls-7{fill:#ffb8a6;}.cls-8{fill:#ffab96;}.cls-9{fill:#ff9d85;}</style></defs><title>hover_1</title><g id="Layer_2" data-name="Layer 2"><g id="Background"><g id="Layer_2-2" data-name="Layer 2"><g class="cls-1"><g class="cls-1"><path class="cls-2" d="M351.43,58.81c-.16.6-.43,1.2-.58,1.8l-2.74-.32c-.74,2.63-1.49,5.25-2.23,7.88-.75,1-1.6,1.68-2.35,2.64-.92,1.76-2.23.57-4,.58-2.67,2.19-4.33,3-5.86,5.37.34,7.33-5.21,2.11-8.49,3-.16,2.69-.34,5.37-.49,7.85-1.65-1.23-2.66,2-5,.47-2.38,6.6-4.61,7.18-7,7.31a14.85,14.85,0,0,0-1.26,1.73l-2.63-2.18c-2.19,1.84-1.1,6.54-1.77,9.8-1.53-1.23-3.07-2.44-4.72-3.67-.28-1.08-.57-1.94-.85-3,.26-2.25.65-4.71.9-7l2-4.77c2.32-.35,3.08-1.51,2.92-2.57,1.41-5.88-2.54-3.63-4.21-4.45-.05-1-.21-2.11-.26-3.15l3.06-4.64c3.2-1.51,2.49-6.59,5.8-4.33.19-1.23.51-2.65.71-3.88a21.27,21.27,0,0,0,2.42-1.8,5.21,5.21,0,0,0,1,1.15c-.22,1.64-.55,3.27-.89,4.89-.28.8-1.21,2.78-2.87,1.76A34.9,34.9,0,0,1,309.46,85c.86,2.81,2-.81,3.32.39a16.06,16.06,0,0,1,3.38-.66c.24-3.93.31-5,.37-6a4.19,4.19,0,0,1,3.14,1.4c1.82-1.46,2.85-1.35,4.09-2.65.52-4.73,1.82-3.34,2.42-3.69,3-7.15,6.44-9,10.57-8.77.24,1.69,1.8,2.5,3,3.47,1.69-3.14,3.07-4.85,2.86-8.84a8.86,8.86,0,0,1-1.09-1A55.38,55.38,0,0,0,336.1,57a10.06,10.06,0,0,0-2.23.78l-2,4.77c-1.19-3.06-4.17-3.19-6.26-4.89-.61-1.32-1.33-2.65-1.93-4.17,1.67-2.52,3.77-1.24,6.07-1.18,2.25.88,4.38,1.76,6.51,2.63,1.64-.44,3.4-.86,5-1.3,3.35-.24,6.15-4.29,7.73-.15,1,.74,1.75,1.45,2.62,2.17C351.56,56.74,351.49,57.77,351.43,58.81Z" transform="translate(-0.18)"/><path class="cls-3" d="M339.76,68.5c-1.21-1-2.77-1.78-3-3.47-4.13-.27-7.59,1.62-10.57,8.77-.6.35-1.9-1-2.42,3.69-1.24,1.3-2.27,1.19-4.09,2.65a4.19,4.19,0,0,0-3.14-1.4c-.06,1-.13,2.06-.37,6a16.06,16.06,0,0,0-3.38.66c-1.31-1.2-2.46,2.42-3.32-.39a34.9,34.9,0,0,0,2.61-15.73c1.66,1,2.59-1,2.87-1.76.34-1.62.67-3.25.89-4.89l3.31.38,3.32.38c.23-3.72,4.14.06,3.12-5.68,2.09,1.7,5.07,1.83,6.26,4.89l2-4.77A10.06,10.06,0,0,1,336.1,57a55.38,55.38,0,0,1,5.43,1.66,8.86,8.86,0,0,0,1.09,1C342.83,63.65,341.45,65.36,339.76,68.5Z" transform="translate(-0.18)"/><path class="cls-4" d="M325.58,57.7c1,5.74-2.89,2-3.12,5.68L319.14,63l-3.31-.38a5.21,5.21,0,0,1-1-1.15,21.27,21.27,0,0,1-2.42,1.8c-.2,1.23-.52,2.65-.71,3.88-3.31-2.26-2.6,2.82-5.8,4.33l-3.06,4.64c.05,1,.21,2.11.26,3.15,1.67.82,5.62-1.43,4.21,4.45.16,1.06-.6,2.22-2.92,2.57l-2,4.77c-.25,2.26-.64,4.72-.9,7-1.78.84-3.43,1.49-5.21,2.33l-1-.13a18.83,18.83,0,0,1-2.3,1.82c-.44-2.13-.9-4.06-1.34-6.2-1.81-2.29-1.17,4-3.06,4.66-1.75-1.46-3.49-3.12-5.24-4.57-5.39,1.46-5.73-11.28-11.16-7.33a51.13,51.13,0,0,0-4.74-3.45c-2.25,1-4.52,2.18-6.76,3.17l-4.46-.51a2.56,2.56,0,0,0-.44-2.14c-2.18-.25-2.62,6.79-6.83,4.21a14.9,14.9,0,0,1-2.68-1.34,52.15,52.15,0,0,1-5.56.4l-6.06-.7-1.14-.13c-2.57-1.34-.47-5.26-1.74-7.08-1.78-1-4.91,1.11-5.29-3.73a42.3,42.3,0,0,1-4.85-1.6c-2.37,1-3.14,4-5.12,2.54-1.14-.13-2.17-.26-3.31-.38-.35-.05-.69-.09-1.14-.13-.81,3.65-2.46,2.42-3.33,1.49a25.79,25.79,0,0,1-3.95.58c-.09-4-3.17-.77-4.09-4.42-2.22-1.3-4.33-2.59-6.46-3.67-3,2.16-6,10.77-5.73,3.3-2-1.48-4.49,1.77-7.09-.81-2.13-.88-4.38-1.76-6.5-2.84-1.09.92-2.3,1.82-3.51,2.72l-3.2-.37c-1.16.08-2.33.37-3.37.45-2,2.27-4.65,4.26-4.46-.52l-1-.12c-.73,4.29-2.52,1.59-3,3.82-.44,1.42-2.61,1.17-3.25-1.41l-1.15-.13a24.67,24.67,0,0,0-3.84.6c-.92,3.64-2.57,2.41-3.43,1.48a52.15,52.15,0,0,1-5.56.4c-1.62.23-3.35.24-5,.46-.41,4.75-4.08,2.66-5.93-2.76L126,75.74c-.66,1.38-1.31,2.55-2,3.73-1.59-.39-4.17.35-4.8-2.43l-2.17-.24c-2,2.88-2-.46-3.32-.39l-.57-.07c-.14,2.28-.28,4.55-.43,6.83-1.83,5.2-2.79-1.57-4.23-2.36-.54-.48-.83.32-1.2.9-.49,7.65-3.67-4-5.68,2.26-1.61,0-.5-6.52-3.52-4.36-1.26,7.14-6.46,2-9.5.78-.81,2-1.75,4-2.55,5.75-6-6.74-9.76,8.66-16.91,5.13-2.19-3.59-4.94,1.72-7-1.86C60.41,102.13,51,87.09,49.83,100.08c-2.78.3-6.07-2.36-8.35.91-1.19-4.72-1.39-5.37-1.86-5.21-1.11,1.33-.7,3.87-.95,5.93a21.38,21.38,0,0,1-3.25-1.42c1.18-4-1.24-4.09-1.79-6.24-3,7-5.42-5.42-9.13-5-2.86,1.54-1.95,12.68-6,7.43-2.25,4.74-2.81,4.46-5.67,2.26C11.74,94.23,9.45,94,7.22,91c0-1.66-.15-3.14-.14-5-.52-.89-1-2-1.54-3.09-.89-5.94-1.06-10.54-3-13.25.22-1.64.55-3.27.77-4.92C5.82,64,6.52,62,7.44,62.08,8,64.43,8.62,67,9.16,69.36,10.5,68.27,12,67,13.3,65.88l3.77.43c.7-2,1.41-4,2.1-5.79.37-.37.72-.55,1.09-.92C21.9,61,23.41,62.68,25,64.11c.81,1.76,1.51,3.5,2.43,5.28-.09,1.44-.17,2.69-.31,5A61.26,61.26,0,0,0,33,76.07c1.69.61,3.27,1,5,1.61.37,1.3.85,2.81,1.35,4.11.65-1.17,1.31-2.55,1.85-3.74,1.43-.88,2.11,3,3.31.38-.74-4.67,1.76-2.29,5.17-3.36.76.71,1.4,1.41,2.17,2.12,2.09-2,1.77-4.37,2.55-5.74l2.86-1.55c-.56-3.81,1.48-3.37,2.49-4.71,2.6,2.59,3.58-4,6.19-1.37,1.2-.9.18-4.77,1.34-4.84l1.14.13c.24,1.69.48,3.39.83,5.1.46.05,1,.11,3.39-2.53.11,1.89.2,4,.19,6.06C74,68.08,75,68.61,76.1,69a16.12,16.12,0,0,1,1.26-1.73c2.2-.16,4.39-.12,6.58-.28-.82,7.61,4.41-2.2,3.51,6.44l1,.12c.47-5.57-.49-6.72.24-11,1,.53,2.13.87,3.14,1.4-.12,1.86-.25,3.93-.38,6,2.91,4.91,1.57-4.82,3.63-4.58,1.08,1,2,2.11,3.13,3.27.26,1.29,1,1.15,1.54,1.22,1.09-.91.66-3.25.88-4.9.91.11,1.83.21,2.74.33,2-1,1-5.51,2.56-5.76A69.94,69.94,0,0,1,109,72.74c.83-2.19,1.77-4.37,2.61-6.57.91-1.77,2.21-.37,3.38-.65.43,2.34,1.22,4.31.64,8a5.68,5.68,0,0,0,1.54,1.23c.68-1.6,1.35-3.18,1.91-4.78a3.26,3.26,0,0,1,2.68,1.35,35,35,0,0,0,4.52-.52,52.72,52.72,0,0,0,4.79,2.63c1.57-1.07,3-2.35,4.59-3.43a40.8,40.8,0,0,1,4.6-1.55c2.44,1.32,4.9,2.65,7.47,3.78l1.15.13c.05-.83.11-1.86.18-2.9a18.32,18.32,0,0,1,2.36-2.64,21,21,0,0,1,2.87-1.75l3.31.38,2.18.25c2.32,3.39,2.78,1.57,3.64,2.5,1.44-.88,1-3.63,2-4.76l2.17.25c3.25,5.16,5,2.45,7.48,3.78l3.32.38c.67-1.59,1.34-3.18,1.91-4.78l3.06-4.65a20,20,0,0,0,3.45-1.68c.84,1.14,1.69,2.27,2.54,3.41,1.45.8,2.9,1.59,4.23,2.37.41.88.71,1.54,1,2.2L197.07,61c1.32-.89,2.76-1.77,4.09-2.66l.57.07c.33,2.12.77,4.25,1.22,6.18l1.14.13c1.15-3.62.16-4.35.38-6L205.62,57c3.67.22,1.57,7.89,5.17,5.6.34-1.63.67-3.26.89-4.9l2.74.32c1.43,1.2,2.86,2.2,4.17,3.39,2.23,1.09,4.36,2,6.49,2.83,2.3-3.48-1.29-3.27-.69-7.16,2.07-3.72,1.76-4.17,1.45-4.83-1.29-1.39-1.74,2.09-2.87,1.75a4.89,4.89,0,0,0-.51-1.1c.15-2.27.29-4.54.45-7a34.08,34.08,0,0,0,1.39-3.8l.64-1a35.41,35.41,0,0,0,4.28,1.54,2.89,2.89,0,0,0,.44,2.13c1.29,1.4,1.74-2.09,2.87-1.75a44.91,44.91,0,0,0,3.07,4.31c2.16,2.33,3.06-3,5.1-2.33l1.6.19c.89.51,1.79.83,2.68,1.35,3.56-1.68,8.52-.07,12.75.42,2.22-.37,3.88,6.07,5.88,1.72,3.8,1.9,9-2.5,10.86,3.13,2.37-2.86,6.4-.94,9.12-4,1.65,1.23,3.19,2.45,4.72,3.66,3.31-1.28,7.46.45,9.69-3.87,1.19,1.17,2.51,2.16,3.71,3.34,1.14.13,2.38.48,3.26-.67,3.34,1.84,6.16.92,6.19,7.79a9.79,9.79,0,0,0,1.21-.89l2.17.25.57.06c1-.93,1.95-1.65,2.93-2.58l1.6.18a16,16,0,0,0,1.66-.84,10.76,10.76,0,0,0,2.35-.77C324.25,55.05,325,56.38,325.58,57.7Z" transform="translate(-0.18)"/><path class="cls-2" d="M285.88,108.11a10.06,10.06,0,0,1-2.23.78,21.41,21.41,0,0,1-3.26-1.41l-1.6-.19c-2-1.89-3.8-3.56-5.74-5.66l-.57-.06c-1.9.81-3.79,1.64-5.68,2.46l-2.18-.24c-.2-2.32-.39-4.84-.7-7.17A10.83,10.83,0,0,1,258.5,95c-.46,1.82-.9,3.22-1.34,4.84-1.77.63-4.36-2.17-5.16,1.49-1,3.63,1.09,4.5,2.49,4.24,2.15-1.21,1.8,2.5,2.5,4.24-.78,1.38-1.55,2.54-2.44,3.89-2.41-1.94-9.41,3.08-7.34-5.84a10.36,10.36,0,0,1-7-1.85c0,1.67.14,3.34.14,5,.92,2,4.48.31,3,5.35l-6.52-.75c-1.08-1.17-2.16-2.33-3.12-3.48.6-2.23-.49-3.18-.78-5.93-1.9,1-3.83,2.27-5.73,3.3-1.8,2.92-1.56,4.61-3.24,7.54l-3.78-.43c-3-3.89.38-7.87.24-12.89l-1-2.2c-2.95,1.12-6,2-9,2.91-2.38,4.73-7.66-2.76-8.61,5-1.95-.22-4.44-.93-6.08,1.38-2.89,9.25,2,6.49,2.11,10.25-1.16,3.81-2.86,1.55-3.62,4.58-2.36.77-5.61,1.22-8.42,1.94l-.57-.07L184,127.4a46.52,46.52,0,0,1-4.6,3.43,6.88,6.88,0,0,1-1.66.85c-.85-1.14-1.72-2.07-2.57-3.21-2.8,2.39-5.1-1.22-7.59-1.92.81-5.52,4.16-9.31,7-7.1.25-5.8,4.08-.78,5.75-3.5,1.17-9.24-6.07-7.78-4.36-18.42,2.69-6.14,6.54-3.21,6.18-10.32,2.72-1.15,3.37,5,6.5,2.83.11-1.65.21-3.31.32-5-6.56-.12-12.71-4.79-17.61-2,2.43,8.83-5.8,2.47-2.87,10.71,1.25.36,2.48.92,3.84,1.28-1.76,4.17-3,3.61-4.09,2.65-.79,1.58-1.69,3.14-2.48,4.71-2.57,2.42-4.06,2.25-6.88,3.17-.18,8.31-7.88-1.12-5.62,10.39.53,6.31-2.45.55-4,1.42-.23-3.57-3.12-1.61-4.8-2.43-.71,2.21-2.49,3-2,6.64,2.56-.33.25,5.23,3.06,4.51-.72,2.21.79,9.26-2.15,6.63.92,10.93-5.64,7.26-7.39,13.1-1.77,4.17-5.08,3.79-8,3.24-3.06,8.39-9.05,8.33-14.53,11.24-.11,1.65-.21,3.3-.31,5l-.46,0a20.67,20.67,0,0,0-3.14-3.28c-.62,2.64-1.13,5.08-1.64,7.72-.71,2.2-1.31,4.44-2,6.85l-3.89-.45c-2-7.73,2.77-9.26,4.2-13.68a35.22,35.22,0,0,0,2.93-2.57c.68-1.59,1.35-3.18,1.92-4.78,1.22-3,4.77,1,4.26-5.55,2.7,1.14,3.32-3.36,4.73-5.49a4.89,4.89,0,0,0-2.38-6.11c-5.17,5.24-5.09-8.71-9.31-.24-2.77-3.65-8.18-1.77-9.58-6.93-1.19-3.06-2.2-3.59-2.3-7.35-2.35.77-5.42,7.29-8.48,3-1.39-1.82-.57-9.23-4.42-8.42-.47,1.82-.94,3.85-1.41,5.87-2.62,1.37-4.31-3-2.37-6.31.72-.33,1.66,1,2.81-.71-.49-1.31-1-2.82-1.46-4.13-3.21-2.24-6.89,5-10.22,4.86.12-3.73-1.22-6.17-3.51-6.44-1.56,2.94-4.73,3.83-5.48-.64-1.91,1-3.83,2.28-5.74,3.3-.79,1.58-.71,3.88-1,5.94-6.22-1.77-14.75,5.59-18.39-6.08-2.53-.08.16,8.34-3.17,6.51-3.47-1.65,1.43-13.59-4.8-11.6-.26,4.14-.31,5-.38,6-1-.32-3,.49-3.2-2.24-3.95.58-1.32,10.05-5.34,6.26a24.25,24.25,0,0,1-2.56,5.74c-1.51.24-3,.28-4.41.53.25-2,.59-3.89.84-5.94-.58-1.74-1.28-3.48-1.86-5.21-1.56-.81-4.56,1.14-4.78-2.64-.35-3.58-.69-7.37-.92-10.93-.93-1.78-1.62-3.52-2.43-5.28L2.35,89.61.18,89.35c0-.4.05-.81.07-1,.21-1.64.55-3.27.88-4.9C2,81,.06,80.39.3,78.34c.77-3,1.53-5.87,2.28-8.69,1.61,5.59,2,7.3,3.09,11.18,0,.83-.09,1.45-.13,2.07.51,1.1,1,2.2,1.54,3.09,0,1.87.13,3.35.14,5,2.23,3,4.52,3.23,5.61,7.73,2.86,2.2,3.42,2.48,5.67-2.26,4.05,5.25,3.14-5.89,6-7.43,3.71-.41,6.16,12,9.13,5,.55,2.15,3,2.21,1.79,6.24a21.38,21.38,0,0,0,3.25,1.42c.25-2.06-.16-4.6.95-5.93.47-.16.67.49,1.86,5.21,2.28-3.27,5.57-.61,8.35-.91,1.17-13,10.58,2,12.31-10.67,2.08,3.58,4.83-1.73,7,1.86,7.15,3.53,10.89-11.87,16.91-5.13.8-1.79,1.74-3.77,2.55-5.75,3,1.18,8.24,6.36,9.5-.78,3-2.16,1.91,4.38,3.52,4.36,2-6.23,5.19,5.39,5.68-2.26.37-.58.66-1.38,1.2-.9,1.44.79,2.4,7.56,4.23,2.36.15-2.28.29-4.55.43-6.83l.57.07c1.27-.07,1.29,3.27,3.32.39l2.17.24c.63,2.78,3.21,2,4.8,2.43.65-1.18,1.3-2.35,2-3.73l2.17.25c1.85,5.42,5.52,7.51,5.93,2.76,1.63-.22,3.36-.23,5-.46a52.15,52.15,0,0,0,5.56-.4c.86.93,2.51,2.16,3.43-1.48a24.67,24.67,0,0,1,3.84-.6l1.15.13c.64,2.58,2.81,2.83,3.25,1.41.48-2.23,2.27.47,3-3.82l1,.12c-.19,4.78,2.47,2.79,4.46.52,1-.08,2.21-.37,3.37-.45l3.2.37c1.21-.9,2.42-1.8,3.51-2.72,2.12,1.08,4.37,2,6.5,2.84,2.6,2.58,5.11-.67,7.09.81-.24,7.47,2.72-1.14,5.73-3.3,2.13,1.08,4.24,2.37,6.46,3.67.92,3.65,4,.45,4.09,4.42a25.79,25.79,0,0,0,3.95-.58c.87.93,2.52,2.16,3.33-1.49.45,0,.79.08,1.14.13,1.14.12,2.17.25,3.31.38,2,1.48,2.75-1.56,5.12-2.54a42.3,42.3,0,0,0,4.85,1.6c.38,4.84,3.51,2.7,5.29,3.73,1.27,1.82-.83,5.74,1.74,7.08l1.14.13,6.06.7a52.15,52.15,0,0,0,5.56-.4,14.9,14.9,0,0,0,2.68,1.34c4.21,2.58,4.65-4.46,6.83-4.21a2.56,2.56,0,0,1,.44,2.14l4.46.51c2.24-1,4.51-2.18,6.76-3.17a51.13,51.13,0,0,1,4.74,3.45c5.43-4,5.77,8.79,11.16,7.33,1.75,1.45,3.49,3.11,5.24,4.57,0,.4,0,.61-.06,1C287.66,103.73,286.72,105.92,285.88,108.11Z" transform="translate(-0.18)"/><path class="cls-5" d="M224.94,41.11l-.64,1a34.08,34.08,0,0,1-1.39,3.8c-.16,2.48-.3,4.75-.45,7A4.89,4.89,0,0,1,223,54c1.13.34,1.58-3.14,2.87-1.75.31.66.62,1.11-1.45,4.83-.6,3.89,3,3.68.69,7.16-2.13-.87-4.26-1.74-6.49-2.83-1.31-1.19-2.74-2.19-4.17-3.39l-2.74-.32c-.22,1.64-.55,3.27-.89,4.9-3.6,2.29-1.5-5.38-5.17-5.6l-1.15,1.74c-.22,1.65.77,2.38-.38,6L203,64.61c-.57-1.94-1.24-4.1-1.79-6.25-1.33.89-2.77,1.77-4.09,2.66l-2.42,3.68c-.3-.66-.6-1.32-1-2.2-1.33-.78-2.78-1.57-4.23-2.37-.85-1.14-1.7-2.27-2.54-3.41a20,20,0,0,1-3.45,1.68l-3.06,4.65c-.57,1.6-1.24,3.19-1.91,4.78l-3.32-.38c-2.45-1.33-4.23,1.38-7.48-3.78l-2.17-.25c-1,1.13-.59,3.88-2,4.76-.86-.93-1.32.89-3.64-2.5l-2.18-.25-3.31-.38a21,21,0,0,0-2.87,1.75,18.32,18.32,0,0,0-2.36,2.64c-.07,1-.13,2.07-.18,2.9l-1.15-.13c-2.57-1.13-5-2.46-7.47-3.78a40.8,40.8,0,0,0-4.6,1.55c-1.56,1.08-3,2.36-4.59,3.43a52.72,52.72,0,0,1-4.79-2.63,35,35,0,0,1-4.52.52A3.26,3.26,0,0,0,119.11,70c-.56,1.6-1.23,3.18-1.91,4.78a5.68,5.68,0,0,1-1.54-1.23c.58-3.67-.21-5.64-.64-8-1.17.28-2.47-1.12-3.38.65-.84,2.2-1.78,4.38-2.61,6.57l-.57-.06c-.19-2.52-.36-5.25-.53-8a25.83,25.83,0,0,1-2-5.23c-1.52.25-.53,4.73-2.56,5.76-.91-.12-1.83-.22-2.74-.33-.22,1.65.21,4-.88,4.9-.58-.07-1.28.07-1.54-1.22-1.08-1.16-2-2.31-3.13-3.27-2.06-.24-.72,9.49-3.63,4.58.13-2.07.26-4.14.38-6-1-.53-2.14-.87-3.14-1.4-.73,4.29.23,5.44-.24,11l-1-.12c.9-8.64-4.33,1.17-3.51-6.44-2.19.16-4.38.12-6.58.28A16.12,16.12,0,0,0,76.1,69c-1.13-.34-2.13-.87-3.26-1.21-1.93-2.3-2.25-2.75-2.55-3.42-2.39,1.4-.87-2.6-1.86-5.21L67.29,59c-1.16.07-.14,3.94-1.34,4.84-2.61-2.59-3.59,4-6.19,1.37-1,1.34-3,.9-2.49,4.71l-2.86,1.55c-.78,1.37-.46,3.69-2.55,5.74-.77-.71-1.41-1.41-2.17-2.12-3.41,1.07-5.91-1.31-5.17,3.36-1.2,2.57-1.88-1.26-3.31-.38-.54,1.19-1.2,2.57-1.85,3.74-.5-1.3-1-2.81-1.35-4.11-1.7-.61-3.28-1-5-1.61a61.26,61.26,0,0,1-5.88-1.72c.14-2.27.22-3.52.31-5-.92-1.78-1.62-3.52-2.43-5.28.23-1.85.6-3.89.84-5.94.82-.12,1.53-.45,2.34-.56,2-.82,4.13-1.62,6.14-2.42l.12-1.86c1.7.4,3.28,1,5,1.41.23-1.86.59-3.9.82-5.75,1.11.76,2.21,1.51,3.2,2.25,1.09-.92.55-3.28.89-4.9l1.14.13,1.6.19c-.06.82-.09,1.44-.13,2.07-.12,1.86-.25,3.93-.38,6-.73.54-1.57,1.07-2.29,1.61q.25,4.1.52,8.19c4.32-2.84,7.48-3.51,8.8-8.16,3.86-2.67,9,1.46,10.84-3.74a5.8,5.8,0,0,0-2.7-1.15c-.51-4.64,1.26-7.14,4.16-5.56-.43-4.21,1.1-6.54,1.13-8.82,2.4,4,3-2.57,5.62-1.44.1-1.65.21-3.31.32-5l1.27-1.94a61.26,61.26,0,0,0,5.88,1.72l7.78.9c1.89,1,3.9,1.9,5.81,2.75l2.63,2.18c4.57,4.07,3.12-3.81,5.73-3.3,2,1.27,3.87,2.53,5.86,3.8,3.73,3.13,6.17.92,6.32,5.73,1.64-4,3.78-1.44,4.61-3.64,4.25-1.6,8.1,1.14,12.81-.4,1.75-.42,3.74-.82,5.62-1.44l1.6.19a36,36,0,0,0,.89,4.06c2,.86,2.68-.53,3.32-1.49,3.33-1.49,8.85.39,12.76.43a17.52,17.52,0,0,1,.76-2.83c.87.73,1.63,1.44,2.62,2.17l3.2.38c1.26-1.73,2.54-3.67,3.7-5.62.93-.1,1.87-.41,2.79-.51.15,1.27.17,2.73.33,4,5-5.68,7,4.55,11.61.29-.91,3.43,1.71,4,2.61,2.39.56.27,1,.73,1.55,1,.17,2.73.35,5.46.64,8.2,1.9.85,3.92,1.7,5.82,2.55,1.39,0,2.67-.32,3.94-.39,1.47-3.16,3-6.31,4.52-9.47-.49-1.51-1-2.82-1.46-4.33,2-2.69,3.39-2.53,4.65-2.39a18.61,18.61,0,0,0,1.53,1.22l2.94-2.78c.52.9,1.05,1.58,1.47,2.25,2.47-.76,4.94-1.52,7.39-2.06,1.14,2,2.27,4.22,3.41,6.22Z" transform="translate(-0.18)"/><path class="cls-3" d="M203.29,84.64c3.55,7.7-1.22,8.4-1.34,4.84Q202.63,87.07,203.29,84.64Z" transform="translate(-0.18)"/><path class="cls-4" d="M349.7,69.64a28.84,28.84,0,0,0-3.82-1.47c.74-2.63,1.49-5.25,2.23-7.88l2.74.32c.34,1.91.82,3.43,1.29,5.15C351.36,67.13,350.48,68.28,349.7,69.64Z" transform="translate(-0.18)"/><path class="cls-4" d="M310.57,102c-.24,2-1.7,3.13-3.06,4.64-.77,1.37-1.65,2.52-2.42,3.68-.64-.7-1.4-1.41-2-2.11-.73.54-1.57,1.07-2.29,1.61a36.42,36.42,0,0,1-.9-4.06c.64-1,1.26-1.73,1.79-2.71a9.49,9.49,0,0,0,.7-2c1.65,1.23,3.19,2.44,4.72,3.67.67-3.26-.42-8,1.77-9.8l2.63,2.18C311.24,98.74,310.91,100.37,310.57,102Z" transform="translate(-0.18)"/><path class="cls-4" d="M291.63,122.93c-1.83-4-5.12,2.54-5.93-2.76.07-1,.13-2.07.18-2.9,1.14-1.53,2.38-3.06,3.63-4.58a14,14,0,0,1,2.81-.71l.46,0a11.67,11.67,0,0,1,.32,4C292.61,118.25,292.11,120.7,291.63,122.93Z" transform="translate(-0.18)"/><path class="cls-4" d="M279.84,134.48c-.38-1.29-.63-2.77-.9-4.06.34-1.63.56-3.26.89-4.89a18.92,18.92,0,0,0,2.3-1.81c.47,1.71.94,3.43,1.29,5.14C283.51,132.83,281,132.54,279.84,134.48Z" transform="translate(-0.18)"/><path class="cls-4" d="M280,114.51a25.94,25.94,0,0,1-2.61-2.39c-1.9,2.7-3,1.53-4,1.62-1.4.26-2.9.29-4.41.53-1.14-.12-2.17-.25-3.32-.38-.89-.51-1.79-.82-2.68-1.35-1.21-.76-4.79,1.12-5.92-2.77-.7-1.74-.35-5.45-2.5-4.24-1.4.26-3.53-.61-2.49-4.24.8-3.66,3.39-.86,5.16-1.49.44-1.62.88-3,1.34-4.84a10.83,10.83,0,0,0,5.42,1.66c.31,2.33.5,4.85.7,7.17l2.18.24c1.89-.82,3.78-1.65,5.68-2.46l.57.06c1.94,2.1,3.79,3.77,5.74,5.66l1.6.19C280.2,110.58,280.08,112.44,280,114.51Z" transform="translate(-0.18)"/><path class="cls-4" d="M265.77,163.89a5.1,5.1,0,0,0-.51-1.1c.19-2.89.38-6,.57-8.88.95-.52,1.66-2.72,2.87-1.76.38,3.17.77,6.13,1.15,9.09C268.09,160,267.42,165.12,265.77,163.89Z" transform="translate(-0.18)"/><path class="cls-4" d="M212.08,16.72c-1.33,1.1-2.8,2.39-4.13,3.48l-.57-.06c0-.21,0-.63.06-1,.34-1.63.66-3.05.89-4.89.75-2.84,3.5-2.52,3.88.44C212.12,16.1,212.1,16.52,212.08,16.72Z" transform="translate(-0.18)"/><path class="cls-4" d="M198.52,47.23c-1.5,0-1.69,3.14-2.54,5.54-.21-.24-.3-.66-.52-.9-1.27.07-2.55.34-3.94.39-1.9-.85-3.92-1.7-5.82-2.55-.29-2.74-.47-5.47-.64-8.2a30,30,0,0,0,2.36-2.64l2.74.32c1.26,3.68,2.16.45,3.32.38,3,2,2.43-2,3.44-1.68l1.6.18c.49,1.51,1,2.82,1.46,4.33C199.42,44,199,45.62,198.52,47.23Z" transform="translate(-0.18)"/><path class="cls-4" d="M164.8,12.32c.44-1.62.89-3.23,1.46-4.83,2.36-2.85,1.52,1.42,3,5.34Z" transform="translate(-0.18)"/><path class="cls-4" d="M149.8,14.55A37.82,37.82,0,0,1,145.4,13l-.57-.06-4.91-.57a51.94,51.94,0,0,1-5.42-1.67c-.69-1.95-2.65-.1-3.14-3.27,3.94-5.8,7.08-.86,10.9-4.79,1.48.38,1.76,5,3.46,5.4l2.86-1.55c2.65-1.77,1.75,3.33,2.31,7.14A4.59,4.59,0,0,1,149.8,14.55Z" transform="translate(-0.18)"/><path class="cls-6" d="M148.28,20.41,145,20l-1.78,2.71c-3.09-2.23-3.88-2.32-4.74-3.46a11.07,11.07,0,0,0-2.35.76c-2,.4-4.08.79-6.06,1.18-2.51-2.16-3.86-2.74-3.89-.45l-2.74-.31c-.13,3.73-2.27,1.2-3.38.65-2.43.14-4.84.07-7.16.22l-1.71-.2-.46-.05c-.47-1.73-.93-3.44-1.4-5.16-1.37,1.51-3.24.24-4.53,2.39l-.57-.06-4.92-.57-1.14-.14A32.23,32.23,0,0,1,93.85,16c-.49-1.3-1-2.61-1.47-4.12.33-1.63.67-3.26.89-4.9,3.9.24,7.7.27,11.61.3l3.32.38c2,0,4-.16,6.11-.13a38.24,38.24,0,0,1,5-1.5l6.06.7c2.32-5.78,3.13,3.27,5.94.69.49,3.17,2.45,1.32,3.14,3.27a51.94,51.94,0,0,0,5.42,1.67l4.91.57.57.06a37.82,37.82,0,0,0,4.4,1.55C149.21,16.56,148.75,18.38,148.28,20.41Z" transform="translate(-0.18)"/><path class="cls-4" d="M119.36,6a38.24,38.24,0,0,0-5,1.5c.06-1,.13-2.07.19-3.1A39.5,39.5,0,0,0,119.36,6Z" transform="translate(-0.18)"/><path class="cls-4" d="M108.2,7.67l-3.32-.38c1.38-5.46,2.06-1.63,3.43-1.48C108.27,6.43,108.24,7.05,108.2,7.67Z" transform="translate(-0.18)"/><path class="cls-4" d="M76.1,7.1c-.15.6-.42,1.2-.58,1.8-2.08.19-4.16.36-6.12.34a18,18,0,0,1-1-2C71.47,2,73-.34,76.41,2.13,76.31,3.79,76.21,5.44,76.1,7.1Z" transform="translate(-0.18)"/><path class="cls-2" d="M352.26,72.85c-1.73.22-2.27-.47-2.56-3.21.78-1.36,1.66-2.51,2.44-3.88a3.65,3.65,0,0,0,1.08,1.16C352.86,69,352.51,70.8,352.26,72.85Z" transform="translate(-0.18)"/><path class="cls-2" d="M305.09,110.32c-1.54,4.41-3.95,4.13-5.11,2.54a27.62,27.62,0,0,1,.77-3c.72-.54,1.56-1.07,2.29-1.61C303.69,108.91,304.45,109.62,305.09,110.32Z" transform="translate(-0.18)"/><path class="cls-2" d="M265.77,163.89c-1.76,6.05-4.1,4.74-5.17,3.37-.23-1.7-.47-3.38-.83-5.1,1.62-1.89,4.56-2.81,5.49.63A5.1,5.1,0,0,1,265.77,163.89Z" transform="translate(-0.18)"/><path class="cls-2" d="M114.31,7.54c-2.07,0-4.16.14-6.11.13,0-.62.07-1.24.11-1.86.46-5.36,1.42-4.21,2-5.81,2.3.06,1.8,4.37,4.21,4.44C114.44,5.47,114.37,6.51,114.31,7.54Z" transform="translate(-0.18)"/><path class="cls-2" d="M92.38,11.89l-2.17-.25c-1.42-1.2-2.74-2.19-4.16-3.4.06-1,.13-2.06.19-3.1C89,4.84,91.55-.5,93.27,7,93.05,8.63,92.71,10.26,92.38,11.89Z" transform="translate(-0.18)"/><path class="cls-2" d="M79.42,7.48,76.1,7.1c.11-1.66.21-3.31.31-5,1.11.76,2.21,1.51,3.2,2.25C79.55,5.41,79.48,6.45,79.42,7.48Z" transform="translate(-0.18)"/><path class="cls-5" d="M353.22,66.92a3.65,3.65,0,0,1-1.08-1.16c-.47-1.72-.95-3.24-1.29-5.15.15-.6.42-1.2.58-1.8l3.31.38C356.34,64.78,355.07,66.72,353.22,66.92Z" transform="translate(-0.18)"/><path class="cls-5" d="M319.64,55.14,318,55c-1,.93-2,1.65-2.93,2.58l-.57-.06-2.17-.25a9.79,9.79,0,0,1-1.21.89c0-6.87-2.85-5.95-6.19-7.79-.88,1.15-2.12.8-3.26.67-1.2-1.18-2.52-2.17-3.71-3.34-.07-.64-.26-1.29-.44-2.14l5.61-1.23c.09-1.44.17-2.69.26-4.14,1.84,0,3.7-.19,5.54-.19a8.18,8.18,0,0,0,4.67,4.5l5.48.63c1.82.41,1,3.87,2.18,9.21A16,16,0,0,1,319.64,55.14Z" transform="translate(-0.18)"/><path class="cls-5" d="M300,112.86l-1.14-.13c-1.5,5.45-3.87,2.88-5.74,3.29a11.67,11.67,0,0,0-.32-4c1.21-.9,2.41-1.81,3.51-2.72a30.51,30.51,0,0,0,1.39-3.8l2.17.25a36.42,36.42,0,0,0,.9,4.06A27.62,27.62,0,0,0,300,112.86Z" transform="translate(-0.18)"/><path class="cls-5" d="M292.26,103.85c-1.22-.77-2.55-1.55-3.77-2.31,0-.42,0-.63.06-1,1.89-.62,1.25-7,3.06-4.66.44,2.14.9,4.07,1.34,6.2A10.41,10.41,0,0,0,292.26,103.85Z" transform="translate(-0.18)"/><path class="cls-5" d="M283.27,114.89c-.6.35-1.19.49-1.78.83-.44-.46-1-.73-1.54-1.21.13-2.07.25-3.93.44-7a21.41,21.41,0,0,0,3.26,1.41C283.48,111.58,283.37,113.24,283.27,114.89Z" transform="translate(-0.18)"/><path class="cls-5" d="M260.25,67.25c-.92,3.65-.48,5.78-1.34,4.85-3,1.94-1.21-6.39-.7-7.17A20.7,20.7,0,0,0,260.25,67.25Z" transform="translate(-0.18)"/><path class="cls-5" d="M255.14,60.62c.71-3.87,1.08-4.24,1.46-4.82,1.91-1,1.07,3,1.16,7.21A25.91,25.91,0,0,1,255.14,60.62Z" transform="translate(-0.18)"/><path class="cls-5" d="M251.63,63.34c.18,4.4-1.13,7-3.11,5.48.3-1-.31-2.33-.91-2-2.43-1.74-2.37,2.85-5.1,2.33.16,4.81-1.17,3.82-2.54,3.66l-3.2-.37a14,14,0,0,1-2.81.72c-.11-1.89-.2-4-.19-6.06a10.92,10.92,0,0,0-1.09-1c-1.27.07-2.56.34-3.82.39-2.84-6.15,3.84-2.47,1-8.83.8.09,4.54-6.14,3.83,1.48.54.48,1.1.75,1.53,1.21,2.28-1.4,1.73-3.55,2-4.76,3-.48,3.92,1.7,6.4,2.61C243.65,65.76,249,61.59,251.63,63.34Z" transform="translate(-0.18)"/><path class="cls-5" d="M232.53,43c-1.13-.34-1.58,3.15-2.87,1.75a2.89,2.89,0,0,1-.44-2.13,35.41,35.41,0,0,1-4.28-1.54c1.76-6,5.23-4.39,6.76-3.18l.57.07c.73-.55,1.57-1.07,2.29-1.61l1.15.13c.95,1.36,2,2.94,3.07,4.31,1.56-1.07,1.36,2,1.92,4.18-2-.65-2.94,4.66-5.1,2.33A44.91,44.91,0,0,1,232.53,43Z" transform="translate(-0.18)"/><path class="cls-5" d="M196.92,37.89c-1.41,5.87-2.17,1.62-3.44,1.68s-2.06,3.3-3.32-.38l2-4.77,1,.12a7.29,7.29,0,0,0,1.78-.83C195.6,35.24,196.31,36.56,196.92,37.89Z" transform="translate(-0.18)"/><path class="cls-5" d="M86.05,8.24c-1,1.14-2,2.48-3,3.62l-2.18-.25c-.49-1.31-1-2.82-1.46-4.13.06-1,.13-2.07.19-3.1l6.63.76C86.18,6.18,86.11,7.21,86.05,8.24Z" transform="translate(-0.18)"/><path class="cls-7" d="M73,30.69c-.11,1.65-.22,3.31-.32,5-2.58-1.13-3.22,5.46-5.62,1.44,0,2.28-1.56,4.61-1.13,8.82-2.9-1.58-4.67.92-4.16,5.56a5.8,5.8,0,0,1,2.7,1.15c-1.83,5.2-7,1.07-10.84,3.74-1.32,4.65-4.48,5.32-8.8,8.16q-.27-4.09-.52-8.19c.72-.54,1.56-1.07,2.29-1.61.13-2.06.26-4.13.38-6,0-.63.07-1.25.13-2.07l-1.6-.19-1.14-.13c-.34,1.62.2,4-.89,4.9-1-.74-2.09-1.49-3.2-2.25-.23,1.85-.59,3.89-.82,5.75-1.7-.41-3.28-1-5-1.41l-.12,1.86c-2,.8-4.13,1.6-6.14,2.42-.81.11-1.52.44-2.34.56-.24,2-.61,4.09-.84,5.94C23.41,62.68,21.9,61,20.26,59.6c-.37.37-.72.55-1.09.92-.69,1.79-1.4,3.79-2.1,5.79l-3.77-.43C12,67,10.5,68.27,9.16,69.36,8.62,67,8,64.43,7.44,62.08c.25-2.26.63-4.51,1-6.76A14.9,14.9,0,0,0,5.76,54c-.15-1.27-.29-2.74-.32-4-.6-1.53-1.32-2.86-1.91-4.39.68-1.79,1.27-3.8,2-5.6-.1-3.76-.23-7.32-.33-11.07.45,0,1,.12,1.6.18.51,2.76,1.16,5.34,1.68,8.1-.42,1-.82,2-1.23,3l.91,2a21.31,21.31,0,0,0,3.25,1.41c-.1,1.65,1,2.82,1.28,5.15.64-1,1.28-1.93,1.9-2.7l2.18.26c.71-2.21,1.44-4.63,2-6.85l.57.06c.11-1.65.21-3.3.32-5l2.17.25c.39,3,1.72,1.87,4-1.62l4.34.5,3.32.39c1.11-1.13.59-3.9.94-5.73a2.12,2.12,0,0,1,.63-1A35,35,0,0,0,39,25.73a59.92,59.92,0,0,0,6.12-.34c2,.66,4,1.29,6,1.74a22.35,22.35,0,0,0,3.25,1.41c.28,1.08.55,2.15.84,3a16.12,16.12,0,0,0,2.69,1.35A28.63,28.63,0,0,0,58.71,38l3.06-4.65c-.65-4.24,2.08-5.59,1.77-9.79a5,5,0,0,0,.53-1,11.56,11.56,0,0,0,2.22,1.3,38.72,38.72,0,0,0,2.49,4.24A34.17,34.17,0,0,0,73,30.69Z" transform="translate(-0.18)"/><path class="cls-5" d="M7.44,62.08C6.52,62,5.82,64,3.35,64.73.81,63,2.74,59.88,2.77,57.59c1-1.14,1.83-3.54,3-3.61a14.9,14.9,0,0,1,2.68,1.34C8.07,57.57,7.69,59.82,7.44,62.08Z" transform="translate(-0.18)"/><path class="cls-8" d="M296.29,109.31c-1.1.91-2.3,1.82-3.51,2.72l-.46,0c-.06-2.72-.12-5.43-.06-8.13a10.41,10.41,0,0,1,.69-1.8,18.83,18.83,0,0,0,2.3-1.82l1,.13c.47,1.71.93,3.43,1.4,5.15A30.51,30.51,0,0,1,296.29,109.31Z" transform="translate(-0.18)"/><path class="cls-7" d="M303.17,44.29c-1.68,1.06-3.49,2.31-5.17,3.37-.07-.64-.26-1.29-.44-2.14l-3.66-2.29c-1.15,3.61-2.91,2.36-4.07,2.44A33,33,0,0,1,286,44.19,12.18,12.18,0,0,1,283.71,46c-.51-1.1-.9-2.18-1.41-3.28-.9-.31-1.79-.83-2.68-1.14a29.66,29.66,0,0,0-3.83-1.49c.31-1.21.63-2.63.82-3.86a44.92,44.92,0,0,1,3.13,3.28c0-5.83-1.77-4.79-3-5.34.07-1,.13-2.07.19-2.9,1.57-1.27,3.14-2.35,4.6-3.64,1.31,1.2,2.5,2.38,3.69,3.56l5.37,2.49c-.7,2-1.4,4-2,5.81a11.5,11.5,0,0,0,1.47,2.25,28.71,28.71,0,0,0,3.45-1.68c.19-1.23.51-2.65.82-3.87,1.23.56,2.48.91,3.71,1.47l5.37,2.49C303.34,41.6,303.26,42.85,303.17,44.29Z" transform="translate(-0.18)"/><path class="cls-8" d="M293.53,40.06a28.71,28.71,0,0,1-3.45,1.68,11.5,11.5,0,0,1-1.47-2.25c.58-1.81,1.28-3.81,2-5.81a37.82,37.82,0,0,0,3.76,2.51C294,37.41,293.72,38.83,293.53,40.06Z" transform="translate(-0.18)"/><path class="cls-8" d="M279.74,39.51a44.92,44.92,0,0,0-3.13-3.28c-.19,1.23-.51,2.65-.82,3.86L272,39.67l-5-.59c-.94-1.56-1.75-3.32-2.55-3.42a11.37,11.37,0,0,1-2.81.72c-3.82.39-7.75.56-11.57.75l-.57-.06c-2.2-3.38-2.89-3.46-4.26-3.62-.07,1-.13,2.07-.2,3.1l-1-.12c-2-1.68-2.84-2.41-3.06-4.3-1.44,4.62-3.08,3.18-4.07,2.44a16,16,0,0,0-1.16,2l-1.15-.13c-.72.54-1.56,1.06-2.29,1.61l-.57-.07c-.45-1.92-.78-4-1.22-6.18a3.51,3.51,0,0,1,.62-.76l2.75.32c.09-1.45.17-2.69.26-4.14a34.61,34.61,0,0,0,3.39-2.53,15.89,15.89,0,0,1,1.08,1.17l.57.06c4.3-4.28,4.91.58,7.09.83,2.42-.14,4.83-.07,7.26-.21,1,7.4,2.26,2.55,3.64,2.5a25.91,25.91,0,0,1,4-.58c3.63-2.71,6.54,2.21,10.34,2.23l5.49.63c-.06.83-.12,1.86-.19,2.9C278,34.72,279.77,33.68,279.74,39.51Z" transform="translate(-0.18)"/><path class="cls-8" d="M216.76,30.17c-.09,1.45-.17,2.69-.26,4.14-2.45.54-4.92,1.3-7.39,2.06-.42-.67-1-1.35-1.47-2.25-.46-1.72-.95-3.23-1.28-5.14-1.2.69-2.38,1.18-3.45,1.68a44.45,44.45,0,0,1-4.33-2.58c-1.22,3-3.55,3.34-3.58,5.63a7.29,7.29,0,0,1-1.78.83l-1-.12a40.49,40.49,0,0,0-2.56-3.21c-1.62,1.9-4-.66-5.61,1.23-.85-1.14-1.71-2.07-2.56-3.21-1.5-1.63-2.81,2.59-3.82-1.48l-5.49-.63a21.65,21.65,0,0,0-2.87,1.75,5.6,5.6,0,0,0-1-1.16c-1.43.88-2.74,1.56-4.07,2.45-.64-.7-1.4-1.41-2.05-2.11-1.22,1.11-2.34,2.44-3.57,3.55-.84-1.15-1.7-2.28-2.54-3.42-2.76,3.64-6.12,2-8.61,5-.54,1.18-4.38,1.79-3.83-1.49-1.19-3-6,1.6-4.6-5.52,3.37-.44,2.45-4.09,4.14-3.48,3.74,2.72,5.25,2.48,6.51.75,1.23-1.11,2.46-2.43,3.57-3.55,1.06,1.37,2,2.94,3.06,4.31,1.71.4,3.42.6,5.11-2.33-1.7-2.27-3.42-4.35-5.11-6.62a35.69,35.69,0,0,0,1-5.93c2.65,1.76,5,2.24,7.53,3l4.46.51c1.7.41,3.61,1,5.42,1.67l.46.05c3.76-3.11,6.39-2.8,11.55,1.33,2.13.87,4.26,1.74,6.51,2.62l-3.06,4.65c.62,1.11,1.36,2.24,2,3.35,2.06.24,3.42-4.81,5.3-5.43,2.53-5.33,7.49-5.59,10-2,.2.44.4.89.51,1.1.73,1.13,1.35,2.24,2,3.35,1.26.15,2.43-.13,3.2,2.25a14,14,0,0,0,2.81-.72l1.14.13C216.92,27.69,216.84,28.94,216.76,30.17Z" transform="translate(-0.18)"/><path class="cls-8" d="M136.49,32c-1.11-.75-2.09-1.49-3.2-2.24a19.52,19.52,0,0,0-1.47-2.25,8.46,8.46,0,0,0-1.27,1.94l-6.06-.71c-.11,3.53-2.1.39-2.93,2.59-2.08.17-1.49-3.72-3.52-4.37a21.25,21.25,0,0,0-.89,4.9l-4.35-.5c-1.72,3.55-3,4.44-3.49,2.51-.15-1.27-.29-2.74-.33-4-3.22-1.83-5-.79-6.76,1.3l-3.77-.43c-.74-1.13-1.36-2.24-2-3.35-.93,2-1.74,3.75-2.67,5.72l-1.92-4.17-2.74-.32c-.41,1-.81,1.78-1.21,2.78l-7.78-.9c-.24-3.57-.57-7.35-.91-11.14a15.66,15.66,0,0,0,2.68,1.35c2.84,4.28,4,1.29,4.41-.54,1.72-1.67,2.38.7,3.12,3.49a23.59,23.59,0,0,0,2.88-1.75c1.19,1.18,2.49,2.37,3.69,3.55,1.13-1.54,2.38-3.06,3.63-4.58,2.12,1.07,2.69,1.14,4.54-2.6l.57.06c1.29-2.15,3.16-.88,4.53-2.39.47,1.72.93,3.43,1.4,5.16l.46.05,1.71.2c2.32-.15,4.73-.08,7.16-.22,1.11.55,3.25,3.08,3.38-.65l2.74.31c0-2.29,1.38-1.71,3.89.45,2-.39,4.08-.78,6.06-1.18-.08,1.25-.17,2.69-.25,3.93.76.72,1.41,1.42,2.17,2.13C137.42,28.11,137,30.14,136.49,32Z" transform="translate(-0.18)"/><path class="cls-9" d="M74.27,28.75c-.68-1.95-1.24-4.1-1.92-6.05,1.21-4.65,2-6.84,1.08-8-1.72-1.87-1.15,3.61-2.87,1.75-.55-.48-1-.74-1.54-1.22.13-2.07.25-3.93.38-6,2,0,4-.15,6.12-.34,1.25,2.23,2.6,4.47,4,6.5-.09,1.45-.17,2.69-.25,3.93a15.66,15.66,0,0,0,2.68,1.35c-.55,3.27-1.1,6.54-1.77,9.79A61.26,61.26,0,0,1,74.27,28.75Z" transform="translate(-0.18)"/><path class="cls-8" d="M73,30.69a34.17,34.17,0,0,1-4.22-2.57c1-1.75,2-3.73,3.11-5.47l.46.05c.68,1.95,1.24,4.1,1.92,6.05Z" transform="translate(-0.18)"/><path class="cls-8" d="M63.54,23.56c.31,4.2-2.42,5.55-1.77,9.79L58.71,38a28.63,28.63,0,0,1-.82-5.09,16.12,16.12,0,0,1-2.69-1.35c-.29-.87-.56-1.94-.84-3l2.42-3.68a55.79,55.79,0,0,0,5.62-1.43Z" transform="translate(-0.18)"/><path class="cls-8" d="M34.45,28.33c.65,6.11-1.86,7.49-3.88,8.51a28.83,28.83,0,0,0-.38-3.17l-4.34-.5c-2.3,3.49-3.63,4.58-4,1.62l-2.17-.25c-.11,1.66-.21,3.31-.32,5l-.57-.06a22.05,22.05,0,0,1-2-2.33c.1-1.64.2-3.09.31-5a6.7,6.7,0,0,1,6.31-3.22c1-1.14,2-2.48,3-3.62,1.4,1.42,2.69,3,4.09,4.43C31.74,29.27,33.15,28.81,34.45,28.33Z" transform="translate(-0.18)"/><path class="cls-8" d="M32.31,43.91c-1.1,2.79-2.63,1.57-3.9,1.64.13-2.07.24-3.93.38-6l1.59.18C31,41.26,31.7,42.59,32.31,43.91Z" transform="translate(-0.18)"/><path class="cls-8" d="M14.55,46c-.62.77-1.26,1.73-1.9,2.7-.31-2.33-1.38-3.5-1.28-5.15a21.31,21.31,0,0,1-3.25-1.41l-.91-2c.41-1,.81-2,1.23-3-.52-2.76-1.17-5.34-1.68-8.1.94-.31,1.87-.41,2.81-.72.21,2.11.43,4,.76,6.13l3.2.37L14.94,40C14.82,41.9,14.68,44,14.55,46Z" transform="translate(-0.18)"/><path class="cls-7" d="M301.64,103.05c-.53,1-1.15,1.74-1.79,2.71l-2.17-.25c-.47-1.72-.93-3.44-1.4-5.15,1.78-.84,3.43-1.49,5.21-2.33.28,1.08.57,1.94.85,3A9.49,9.49,0,0,1,301.64,103.05Z" transform="translate(-0.18)"/><path class="cls-7" d="M289.51,112.69c-1.25,1.52-2.49,3-3.63,4.58a25.7,25.7,0,0,0-2.61-2.38c.1-1.65.21-3.31.38-6a10.06,10.06,0,0,0,2.23-.78c.84-2.19,1.78-4.38,2.61-6.57,1.22.76,2.55,1.54,3.77,2.31-.06,2.7,0,5.41.06,8.13A14,14,0,0,0,289.51,112.69Z" transform="translate(-0.18)"/><path class="cls-7" d="M267,39.08c-.86,2.61-2.28,1.41-3.89,1.43-3.46,1.89-8.73-4.13-11.75,1.77-2.15,1.21-.23-3.57-1.86-5.21L245,36.55c.07-1,.13-2.06.2-3.1,1.65,1.23,3.19,2.45,4.83,3.68,3.82-.19,7.75-.36,11.57-.75a11.37,11.37,0,0,0,2.81-.72C265.24,35.76,266.05,37.52,267,39.08Z" transform="translate(-0.18)"/><path class="cls-7" d="M242.3,45.2,240.7,45c-.56-2.15-.36-5.25-1.92-4.18-1.07-1.37-2.12-2.95-3.07-4.31a16,16,0,0,1,1.16-2c2.46-.76,3.17-2.75,4.07-2.44.22,1.89,1.1,2.62,3.06,4.3C243.43,40.12,244.45,44,242.3,45.2Z" transform="translate(-0.18)"/><path class="cls-7" d="M224.94,41.11l-.64,1a37.68,37.68,0,0,1-4.39-1.55c-1.14-2-2.27-4.22-3.41-6.22.09-1.45.17-2.69.26-4.14,3.44.19,7,.18,10.46.37,1.13.34,2.13.87,3.26,1.21.44,2.14.77,4.26,1.22,6.18C230.17,36.72,226.7,35.06,224.94,41.11Z" transform="translate(-0.18)"/><path class="cls-7" d="M204.7,36.9a18.61,18.61,0,0,1-1.53-1.22c-1.26-.14-2.63-.3-4.65,2.39l-1.6-.18c-.61-1.33-1.32-2.65-1.92-4.18,0-2.29,2.36-2.65,3.58-5.63a44.45,44.45,0,0,0,4.33,2.58c1.07-.5,2.25-1,3.45-1.68.33,1.91.82,3.42,1.28,5.14Z" transform="translate(-0.18)"/><path class="cls-7" d="M190.16,39.19l-2.74-.32a30,30,0,0,1-2.36,2.64c-.56-.27-1-.73-1.55-1-.9,1.56-3.52,1-2.61-2.39-4.64,4.26-6.65-6-11.61-.29-.16-1.27-.18-2.73-.33-4-.92.1-1.86.41-2.79.51-.86,2.61-2.13,4.54-2.55,5.75L162.47,40l-3.2-.38c-1-.73-1.75-1.44-2.62-2.17a17.52,17.52,0,0,0-.76,2.83c-3.91,0-9.43-1.92-12.76-.43-.64,1-1.3,2.35-3.32,1.49a36,36,0,0,1-.89-4.06l-1.6-.19c-1.88.62-3.87,1-5.62,1.44-4.71,1.54-8.56-1.2-12.81.4-.83,2.2-3-.34-4.61,3.64-.15-4.81-2.59-2.6-6.32-5.73-2-1.27-3.86-2.53-5.86-3.8-2.61-.51-1.16,7.37-5.73,3.3l-2.63-2.18c-1.91-.85-3.92-1.71-5.81-2.75.4-1,.8-1.78,1.21-2.78l2.74.32,1.92,4.17c.93-2,1.74-3.75,2.67-5.72.62,1.11,1.24,2.22,2,3.35l3.77.43c1.75-2.09,3.54-3.13,6.76-1.3,0,1.25.18,2.72.33,4,.45,1.93,1.77,1,3.49-2.51l4.35.5a21.25,21.25,0,0,1,.89-4.9c2,.65,1.44,4.54,3.52,4.37.83-2.2,2.82.94,2.93-2.59l6.06.71a8.46,8.46,0,0,1,1.27-1.94,19.52,19.52,0,0,1,1.47,2.25c1.11.75,2.09,1.49,3.2,2.24.46-1.82.93-3.85,1.52-5.86l1,.12c-1.37,7.12,3.41,2.47,4.6,5.52-.55,3.28,3.29,2.67,3.83,1.49,2.49-3,5.85-1.41,8.61-5,.84,1.14,1.7,2.27,2.54,3.42,1.23-1.11,2.35-2.44,3.57-3.55.65.7,1.41,1.41,2.05,2.11,1.33-.89,2.64-1.57,4.07-2.45a5.6,5.6,0,0,1,1,1.16,21.65,21.65,0,0,1,2.87-1.75l5.49.63c1,4.07,2.32-.15,3.82,1.48.85,1.14,1.71,2.07,2.56,3.21,1.62-1.89,4,.67,5.61-1.23a40.49,40.49,0,0,1,2.56,3.21Z" transform="translate(-0.18)"/><path class="cls-7" d="M172.88,59.28c-.91-.12-1.83-.22-2.74-.32.14-2.28.3-4.76.44-7l.58.06c.65.5,1.44.79,2.1,1.29C173.09,56,173,57.62,172.88,59.28Z" transform="translate(-0.18)"/><path class="cls-7" d="M167.08,54.44c-1.33-2.65-2.32-3.39-1.85-5.21a4.44,4.44,0,0,1,3.24,1.41A30.51,30.51,0,0,1,167.08,54.44Z" transform="translate(-0.18)"/><path class="cls-7" d="M143.47,52.76c-1,2.8-2.28,1.41-3.45,1.69l-2.17-.25c-.13-1.68-.14-3.35-.26-5,1.28-.27,2.67-.32,3.95-.59C142.46,48.69,142.9,50.82,143.47,52.76Z" transform="translate(-0.18)"/><path class="cls-7" d="M136.56,49.05,132,50.39c-1.49-1.83-1.4-3.28-1.28-5.14,2.14.66,4,0,6.11-.13C136.69,47,136.63,48,136.56,49.05Z" transform="translate(-0.18)"/><path class="cls-7" d="M94.2,54.16c-.43-2.33-.85-4.88-1.27-7.22l3.89.45C98.23,50.46,95.9,54.57,94.2,54.16Z" transform="translate(-0.18)"/><path class="cls-7" d="M88.39,49.54a15.66,15.66,0,0,0-2.68-1.35c.08-5,2.56-5.95,3.38-.65A8.48,8.48,0,0,0,88.39,49.54Z" transform="translate(-0.18)"/><path class="cls-7" d="M74,48.72c-1,.09-.18-2.52-.32-4,1.63-2.1,3.79.23,4.33,2.59C78.57,53.62,75.48,47.85,74,48.72Z" transform="translate(-0.18)"/><path class="cls-7" d="M43.8,64.39c-.78,3.25-2.2,2-3,3.61-1.79-.82-3.08-2.43-2.37-6.3a33.65,33.65,0,0,1,2.93-2.58Z" transform="translate(-0.18)"/><path class="cls-9" d="M257.14,29c-1.38.05-2.61,4.9-3.64-2.5A36.92,36.92,0,0,1,257.14,29Z" transform="translate(-0.18)"/><path class="cls-6" d="M234.11,27.17l-2.74-.31a8,8,0,0,0-4.15,3.68c-3.45-.19-7-.18-10.46-.37.1-1.65.19-3.1.31-5l-1.14-.13c.08-1.24.16-2.48.25-3.92,3.14-2.36,4.81-3.21,5.6-1.24,4.6.11,9.21.23,13.79.55,1.57-1.07,1.37,2,1.93,4.17A34.61,34.61,0,0,1,234.11,27.17Z" transform="translate(-0.18)"/><path class="cls-9" d="M233.85,31.31,231.1,31a3.51,3.51,0,0,0-.62.76c-1.13-.34-2.13-.87-3.26-1.21a8,8,0,0,1,4.15-3.68l2.74.31C234,28.62,233.94,29.86,233.85,31.31Z" transform="translate(-0.18)"/><path class="cls-9" d="M215.93,25.08a14,14,0,0,1-2.81.72c-.77-2.38-1.94-2.1-3.2-2.25-.62-1.11-1.24-2.22-2-3.35,1.33-1.09,2.8-2.38,4.13-3.48,1.41,1.41,2.69,3,4.1,4.44C216.09,22.6,216,23.84,215.93,25.08Z" transform="translate(-0.18)"/><path class="cls-9" d="M197.41,21.07c-1.88.62-3.24,5.67-5.3,5.43-.61-1.11-1.35-2.24-2-3.35l3.06-4.65A44,44,0,0,0,197.41,21.07Z" transform="translate(-0.18)"/><path class="cls-9" d="M161.43,21.92c-1.69,2.93-3.4,2.73-5.11,2.33-1.06-1.37-2-2.94-3.06-4.31-1.11,1.12-2.34,2.44-3.57,3.55-1.26,1.73-2.77,2-6.51-.75L145,20l3.32.38c.47-2,.93-3.85,1.52-5.86a4.59,4.59,0,0,0,1.09-.92,22.42,22.42,0,0,0,3.25,1.42l2.18.25C158,17.57,159.73,19.65,161.43,21.92Z" transform="translate(-0.18)"/><path class="cls-9" d="M130,21.22c-2.51-2.16-3.86-2.74-3.89-.45C126.17,18.48,127.52,19.06,130,21.22Z" transform="translate(-0.18)"/><path class="cls-9" d="M104.76,18.31c1.29-2.15,3.16-.88,4.53-2.39.47,1.72.93,3.43,1.4,5.16-.47-1.73-.93-3.44-1.4-5.16C107.92,17.43,106.05,16.16,104.76,18.31Z" transform="translate(-0.18)"/><path class="cls-9" d="M86.33,20.14c-.46,1.83-1.57,4.82-4.41.54A31.79,31.79,0,0,0,86.33,20.14Z" transform="translate(-0.18)"/><path class="cls-6" d="M71.89,22.65a19.52,19.52,0,0,0-1.59-2.27c-1.33,1.1-2.68,2.4-4,3.5a11.56,11.56,0,0,1-2.22-1.3,5,5,0,0,1-.53,1l-1.14-.13c-1-2-1.92-4.18-2.94-6.38l-1-.11c-1.42.66-2.72,1.14-4,1.61-.19-.65-.26-1.28-.44-2.13-.95-1.36-2-2.73-3.07-4.31,1.21-4.44,3.29-2.75,4.78-4.45a40.11,40.11,0,0,0,5-.47l1.6.19a28.54,28.54,0,0,1,.38,3.17c.65.69,1.41,1.41,2,2.1.56-1.6,1-3,1.46-4.82.7-.13,1.53-.45,2.22-.58a18,18,0,0,0,1,2c-.13,2.07-.25,3.93-.38,6,.55.48,1,.74,1.54,1.22,1.72,1.86,1.15-3.62,2.87-1.75,1,1.15.13,3.34-1.08,8Z" transform="translate(-0.18)"/><path class="cls-9" d="M64.69,12.65c-.64-.69-1.4-1.41-2-2.1a28.54,28.54,0,0,0-.38-3.17l3.89.45C65.69,9.65,65.25,11.05,64.69,12.65Z" transform="translate(-0.18)"/><path class="cls-9" d="M62.4,23.43C61,26.18,59,24.7,56.78,24.86l-2.42,3.68a22.35,22.35,0,0,1-3.25-1.41c-2-.45-4-1.08-6-1.74.59-3.88,1.19-7.77,1.89-11.64a32.39,32.39,0,0,0,3.9-1.64C52,13.69,53,15.06,54,16.42c.18.85.25,1.48.44,2.13,1.3-.47,2.6-.95,4-1.61l1,.11C60.48,19.25,61.37,21.44,62.4,23.43Z" transform="translate(-0.18)"/><path class="cls-6" d="M47,13.75c-.7,3.87-1.3,7.76-1.89,11.64a59.92,59.92,0,0,1-6.12.34,35,35,0,0,1-3.91,1.64c-.73-1.13-1.35-2.24-2-3.36-1-1.15-.13-5.22-.08-7.92.82-2,1.62-1.9,2.31-1.82,1.09,2.83,2.17,5.67,3.37,8.51.66-3.05,1.41-5.87,2.17-8.7A57.18,57.18,0,0,1,47,13.75Z" transform="translate(-0.18)"/><path class="cls-9" d="M38.71,22.78c-1.2-2.84-2.28-5.68-3.37-8.51,1.84,0,3.7-.2,5.54-.19C40.12,16.91,39.37,19.73,38.71,22.78Z" transform="translate(-0.18)"/><path class="cls-9" d="M34.45,28.33c-1.3.48-2.71.94-4,1.41-1.4-1.41-2.69-3-4.09-4.43.89-3.22,1.9-6.44,2.8-9.67l3.88.45c-.05,2.7-.89,6.77.08,7.92.62,1.12,1.24,2.23,2,3.36A2.12,2.12,0,0,0,34.45,28.33Z" transform="translate(-0.18)"/><path class="cls-9" d="M16.73,46.29,14.55,46c.13-2.07.27-4.13.39-6,.63-1,1.15-1.94,1.79-2.92a22.05,22.05,0,0,0,2,2.33C18.17,41.66,17.44,44.08,16.73,46.29Z" transform="translate(-0.18)"/><path class="cls-6" d="M26.35,25.31C25.64,27.32,25,26.82,24,28c-.25.39-.51.77-.64,1-1.69,1.26-3.48,2.3-5.16,3.36L17,32.15c-.11,1.87-.21,3.32-.31,5-.64,1-1.16,2-1.79,2.92l-1.41-5.15a27.62,27.62,0,0,0,.77-3c-.83-1.34-1.67-2.69-2.5-4.24a10.06,10.06,0,0,1-2.23.78c-.94.31-1.87.41-2.81.72-.57-.06-1.15-.14-1.6-.18-1.87-5-1-7.83-1.09-10.13,1.42-2.34,4.18,1.32,4.71-3.41l5.48.63,4.35.5c2.19-1.83,3-1.74,4-1.62l6.52.75C28.25,18.87,27.24,22.09,26.35,25.31Z" transform="translate(-0.18)"/><path class="cls-9" d="M13.53,34.88l-3.2-.37c-.33-2.12-.55-4-.76-6.13a10.06,10.06,0,0,0,2.23-.78c.83,1.55,1.67,2.9,2.5,4.24A27.62,27.62,0,0,1,13.53,34.88Z" transform="translate(-0.18)"/><path class="cls-6" d="M90.21,11.64c.29,10-3.74,4.57-3.88,8.5a31.79,31.79,0,0,1-4.41.54,15.66,15.66,0,0,1-2.68-1.35c.08-1.24.16-2.48.25-3.93-1.37-2-2.72-4.27-4-6.5.16-.6.43-1.2.58-1.8l3.32.38c.49,1.31,1,2.82,1.46,4.13l2.18.25c1-1.14,2-2.48,3-3.62C87.47,9.45,88.79,10.44,90.21,11.64Z" transform="translate(-0.18)"/><path class="cls-5" d="M298,47.66c-2.23,4.32-6.38,2.59-9.69,3.87-1.53-1.21-3.07-2.43-4.72-3.66-2.72,3-6.75,1.09-9.12,4-1.83-5.63-7.06-1.23-10.86-3.13-2,4.35-3.66-2.09-5.88-1.72-4.23-.49-9.19-2.1-12.75-.42-.89-.52-1.79-.84-2.68-1.35,2.15-1.21,1.13-5.08,1.7-8.77l1,.12,4.46.52.57.06c4.5-.1,9.54,5.89,13,3.38L267,39.08l5,.59,3.77.42a29.66,29.66,0,0,1,3.83,1.49c.89.31,1.78.83,2.68,1.14.51,1.1.9,2.18,1.41,3.28A12.18,12.18,0,0,0,286,44.19a33,33,0,0,0,3.81,1.48c1.16-.08,2.92,1.17,4.07-2.44l3.66,2.29C297.74,46.37,297.93,47,298,47.66Z" transform="translate(-0.18)"/><path class="cls-8" d="M293.53,40.06c.05,1,.21,2.1.37,3.17C293.74,42.16,293.58,41.1,293.53,40.06Z" transform="translate(-0.18)"/><path class="cls-7" d="M230.48,31.75a3.51,3.51,0,0,1,.62-.76A3.51,3.51,0,0,0,230.48,31.75Z" transform="translate(-0.18)"/><path class="cls-7" d="M30.19,33.67a28.83,28.83,0,0,1,.38,3.17A28.83,28.83,0,0,0,30.19,33.67Z" transform="translate(-0.18)"/><path class="cls-9" d="M190.14,23.15c-5.27,5-8.41.07-12.37,2.53-.65-.7-1.41-1.41-2.05-2.11-.89-.52-1.79-.83-2.68-1.35.51-2.65,1-5.09,1.64-7.72l.46.05c1.63,1.43,3.14,3.07,4.78,4.51,1,.11,2.17.24,3.2.37,1.42,1.2,2.28-1.41,3.45-1.69C187.72,19.54,189,21.35,190.14,23.15Z" transform="translate(-0.18)"/><path class="cls-9" d="M143.18,22.74c-1.69-.61-.77,3-4.14,3.48l-1-.12c-.76-.71-1.41-1.41-2.17-2.13.08-1.24.17-2.68.25-3.93a11.07,11.07,0,0,1,2.35-.76C139.3,20.42,140.09,20.51,143.18,22.74Z" transform="translate(-0.18)"/><path class="cls-9" d="M104.19,18.25c-1.85,3.74-2.42,3.67-4.54,2.6-1.25,1.52-2.5,3-3.63,4.58-1.2-1.18-2.5-2.37-3.69-3.55a23.59,23.59,0,0,1-2.88,1.75c-.74-2.79-1.4-5.16-3.12-3.49.14-3.93,4.17,1.53,3.88-8.5l2.17.25c.48,1.51,1,2.82,1.47,4.12a32.23,32.23,0,0,0,4.28,1.53l1.14.14Z" transform="translate(-0.18)"/><path class="cls-9" d="M104.76,18.31l-.57-.06Z" transform="translate(-0.18)"/><path class="cls-9" d="M71.89,22.65c-1.14,1.74-2.08,3.72-3.11,5.47a38.72,38.72,0,0,1-2.49-4.24c1.33-1.1,2.68-2.4,4-3.5A19.52,19.52,0,0,1,71.89,22.65Z" transform="translate(-0.18)"/><path class="cls-9" d="M72.35,22.7l-.46-.05Z" transform="translate(-0.18)"/><path class="cls-6" d="M35.08,27.37a2.12,2.12,0,0,0-.63,1A2.12,2.12,0,0,1,35.08,27.37Z" transform="translate(-0.18)"/></g></g></g></g></g></svg>