<?xml version="1.0" encoding="utf-8"?>
<!-- Generator: Adobe Illustrator 22.0.1, SVG Export Plug-In . SVG Version: 6.00 Build 0)  -->
<svg version="1.1" id="Layer_1" xmlns="http://www.w3.org/2000/svg" xmlns:xlink="http://www.w3.org/1999/xlink" x="0px" y="0px"
	 viewBox="0 0 168.6 81.9" style="enable-background:new 0 0 168.6 81.9;" xml:space="preserve">
<style type="text/css">
	.st0{opacity:0.9;}
	.st1{fill:#C8EEE4;}
	.st2{opacity:0.9;fill:#7ED8C0;enable-background:new    ;}
	.st3{fill:#95DECB;}
	.st4{fill:#AFE6D8;}
	.st5{fill:#DDF5EE;}
	.st6{fill:none;}
	.st7{fill:#F2FBF8;}
	.st8{enable-background:new    ;}
</style>
<title>logo</title>
<g class="st0">
	<g class="st0">
		<path class="st1" d="M34,60.1c0.5,3.7,8.8,4.5,9.8,5.5c4.7,3.2,22.7-4,22.6-2.3c-0.3,2.3,3.2,13.6,4.9,14.2
			c4.2,1.6,8.6,0,12.3-3.5c1.8-1.5,2.2-2.6,2.9-2.2c0.3,0.1,1.4-4.1,3.8-6.2c1.7-1.3,3.7-0.6,5.2-2.2c2.9-2.2,12-4.1,15.2-5.3
			c6.1-2.3,9.1-2.6,13.6-0.9c3.4,1.7,6.3,0.7,9.8,1.4c3.7,0.6,6.4,0.2,10.1,0.8c3.3,1.2,6.9,1.9,10.4,2c0.5-0.1,1-0.3,1.4-0.7
			c0.4-0.4,1.3-0.2,1.9-0.3c3,0.9,5.7,3.4,8.6,3.1c0.8-0.1,2.1-1,1.9-2c-1-5-3.1-8.8-5.7-12.2c-2.4-3.1-5.7-3.4-9-4.3
			c-4.6-1.2-7.6-7.4-9.6-13.3c-1.4-4.6-2.2-11.7-6.2-11.6c-4.7,0.4-9,3.8-13.7,1.3c-3.2-1.9-5.8-3.6-9.1-4.6c-0.9-0.6-1.9-1-2.9-1.3
			c-3.8,0.4-8.2-1.5-11,2.6c-4.3,1.2-6.3-0.7-9.8,2.2c-4.4,3.8-9,8.1-14,8.9c-2.7,0.6-5.5,0.5-8.2-0.4c-1-0.2-4.2-4.5-5.1-5.9
			c-1.8-2.5-4.8-1-6.8,0.7c-2.9,3.1-6.4,5.5-10.3,7.1c-1.3,0.2-2.5-1-4-1.1c-3.5,0.4-6.2,3.2-9.3,4.4c-11.5,1.8-10.1,4-10.5,3.7
			c-1.1,0-1.5-2.5-2.9-3c-1.9-0.4-3.9,0.8-5.2,2.2c-3.9,3.7-8.7,7.4-13.3,5c0.3,0.5,0.3,1.3,0.6,1.3C9,46.3,14,51.9,21.1,51.8
			c0.7-0.3,1.6-0.8,2.4-0.9c1.4,0,2.8-0.1,4.2-0.3C30,50.6,33.6,56.9,34,60.1z"/>
		<path class="st2" d="M153.9,45c3.3,1,6.6,1.2,9,4.3c2.5,3.4,4.7,7.2,5.6,12.2c0.2,1-1.1,1.9-1.9,2c-3,0.3-5.6-2.2-8.6-3.1
			c-0.5,0.1-1.5-0.1-1.8,0.3c-0.4,0.4-0.9,0.6-1.4,0.7c-3.6-0.1-7.1-0.8-10.4-2c-3.7-0.6-6.4-0.2-10.1-0.8c-3.5-0.8-6.5,0.3-9.8-1.4
			c-4.5-1.7-7.6-1.4-13.6,0.9c-3.2,1.2-12.2,3.1-15.2,5.3c-1.5,1.6-3.6,0.9-5.2,2.2c-1-1.7-2.2-3.4-3.4-5L115.7,44L153.9,45z"/>
		<path class="st3" d="M90.4,61.2c0,0-13,8-11.3-1.4c0,0,11.2-22.8,18.3-23c0,0,5.1-0.1,7.8-0.5c0,0,4.6,4.1,10.1,2
			c0,0,22-4.8,23.4-1.4c0,0,8.8,2.1,10.9,4.7c0,0,3.1,6.9,7.1,6.3c0,0,11.7,7.5,5.5,8.3c0,0-3.6,1.4-5.5,1.7c0,0-25.8-4.2-27.1-6.4
			C129.5,51.7,101.6,42,90.4,61.2z"/>
		<path class="st4" d="M89.8,63.8c0,0-8.7,10.2-12.8,2.4c0,0-12.7-9.6-8.5-15.1c0,0,16.3-21.7,30.1-22.3c0,0,1.5,0.1,4.4-3.3
			c0,0,7.5-3.4,10.5,1.6c0,0,8.8,6.9,12.9,5.9c0,0,3.1,4,5.5,2.4c0,0-22.8,6.7-25.3,2.1c0,0-9.8-5.9-20.9,10.5
			C85.6,47.9,81.9,60.4,89.8,63.8z"/>
		<path class="st5" d="M82.3,76.4c-1.5,1.6-3.1,3.6-4.8,4.9c-0.9,0.5-2.2,0.2-3.2,0.5C73,82,71.7,81,70.8,80.3
			c-4.1-4.2-10.8-4.6-14.3-9.9c-0.6-0.6-1-0.9-1.7-1.1c-0.2,0.2-0.9,0.5-1.1,0.7c-2,0-3.9-0.4-5.8-0.1c-3.1,0.8-5.9-1.5-8.5-4
			c-1.5-1.3-3.3-2.2-5-3.2c-2.9-1.8-2.8-7.5-5.6-8.6c-4.5-2.2-8.7,1.4-13.3-0.3c-2.6-1.3-5-2-7.4-4c-1.7-1.8-3.7-3-5.7-4.6
			C2.1,45,1,42.9,1.1,42.4c0.3-0.7,1.3-0.2,2-0.5c1.9-0.8,2.7,2,3.9,3.2c1.5,1.3,3.5,0.8,5.4,1.2c0.8,0.5,1.5,1.1,2.1,1.9
			c1,1.4,2.6,0.6,4.1,0.2c1.9-0.8,3.8,1.3,5.7,1.2c2.6,0.1,5-2.7,7.1-1.3c-1.8-1.3,8.1,0.1,6,0.6c0.2-0.2,0.7,0.9,0.8,1.6
			c-0.1,0.5,0,1.2-0.2,1.4c-1.5,1.6-1.6,4.4-2.2,6.7c0.1,0.3,5.3,0.9,7.2,3c1.4,1.7,2.6,3.7,4.6,4.1c0.5-0.1,0.8-1.2,1.3-1.4
			c1.2,0,15.4-8.4,16.9-7.6c0.9,0.7,2,2.3,1.7,3.5c-0.4,3.2,1.2,4.8,1.6,7.5c0.1,0.7-0.4,1.6-0.3,2.3c0.4,2,1.2,4.3,2.3,4.8
			c1.8,1.3,4,1.8,5.8,1.3L82.3,76.4z"/>
		<path class="st6" d="M134.7,20.8c0,0-7.1,4.2-13.7-1.7c0,0-5.6-3-6.9-2.7l-1.8-1.1c0,0-9-1.2-10.8,2.5c0,0-4.4,1.2-5.1,0.4
			c0,0-3.5-0.6-8,4.7"/>
		<path class="st7" d="M45.1,71.9c-1.5-0.6-8.3-4.5-10.1-6.6c-2.9-3.2-5.5-6.3-8.4-9.8c-0.3-0.3-0.7-0.3-1-0.1
			c-2,1.8-4.2,0.4-6.1,1.2c-0.8,0.3-1.6,1.1-2.4,0.9c-4.5-1-8.5-3.8-12.2-7.4c-1.5-1.6-2.8-3.8-4.3-5.7c-0.3-0.5-0.7-1.1-0.6-1.7
			c0-0.5,0.7-0.2,1.1-0.3c0.4,0.4,0.8,1.1,1.4,1.5c1.1,1,2.5,1.2,3.4,2.3c1.1,1,1.9,2.3,3.1,3.2c0.7,0.5,1.5,0.8,2.4,1
			c2.9,1.1,6,1.8,9.1,1.8c1.3-1.6,3.1-0.3,4.5-0.1c0.4,0.1,0.8,0.5,1.3,0.8c1.3,0.3,2.7-0.4,3.5,0.9c1.6,2.9,3.2,5.5,5.2,7.7
			c1.6,1.8,8.7,6.5,10.6,7.2c2.5,1.2,5,0.1,7.5,0.8C53.3,69.6,51.1,73.8,45.1,71.9z"/>
	</g>
</g>
<g class="st8">
	<path d="M57.5,56.4c-0.4,1-1,1.5-1.9,1.5c-1,0-1.7-0.5-2.1-1.5l-10-28v35.9c0,1.2-0.6,1.9-1.9,1.9h-1.1c-1.2,0-1.9-0.6-1.9-1.9
		V17.6c0-1.2,0.6-1.9,1.9-1.9H42c1.1,0,1.8,0.5,2.2,1.5l11.2,31.8l11.4-31.8c0.3-0.9,1.1-1.5,2.2-1.5h1.7c1.2,0,1.9,0.6,1.9,1.9
		v46.7c0,1.2-0.6,1.9-1.9,1.9h-1.3c-1.2,0-1.9-0.6-1.9-1.9V28.4L57.5,56.4z"/>
</g>
<g class="st8">
	<path d="M118.5,17.7l-7.8,46.7c-0.2,1.1-0.9,1.7-2,1.7h-1.5c-1.1,0-1.9-0.6-2.1-1.7l-7.8-38.7l-7.8,38.7c-0.1,1.2-0.9,1.7-2,1.7
		h-1.7c-1.2,0-1.8-0.6-2-1.7L76,17.7c-0.2-1.3,0.4-2,1.7-2h1.4c1.2,0,1.8,0.6,2,1.8l5.8,38.8l7.6-39c0.2-1.1,1-1.7,2.1-1.7h1.4
		c1.1,0,1.9,0.6,2.1,1.7l7.6,39l5.8-38.8c0.1-1.2,0.9-1.8,1.9-1.8h1.2C118.1,15.7,118.7,16.4,118.5,17.7z"/>
</g>
</svg>
