<svg xmlns="http://www.w3.org/2000/svg" viewBox="0 0 476.67 188.6"><defs><style>.cls-1,.cls-3{opacity:0.9;}.cls-2{fill:#c8eee4;}.cls-3{fill:#7ed8c0;}.cls-4{fill:#95decb;}.cls-5{fill:#afe6d8;}.cls-6{fill:#ddf5ee;}.cls-7{fill:none;stroke:#a9e5d5;stroke-width:0;}.cls-8{fill:#f2fbf8;}.cls-9{font-size:72px;font-family:RiftSoft-Medium, Rift Soft;}.cls-10{letter-spacing:-0.01em;}.cls-11{letter-spacing:-0.01em;}.cls-12{letter-spacing:-0.01em;}</style></defs><title>logo</title><g id="Layer_2" data-name="Layer 2"><g id="Background"><g id="Layer_2-2" data-name="Layer 2"><g class="cls-1"><g class="cls-1"><path class="cls-2" d="M96.34,127c1.32,10.34,24.85,12.81,27.75,15.45,13.25,8.94,64.09-11.26,63.94-6.58-.85,6.55,8.94,38.32,13.82,40.06,12,4.61,24.21-.13,34.8-10,5.21-4.25,6.1-7.44,8.27-6.28.9.18,4.05-11.69,10.87-17.6,4.68-3.71,10.47-1.78,14.78-6.24,8.26-6.29,33.9-11.58,42.9-15,17.12-6.39,25.6-7.24,38.46-2.42,9.6,4.77,17.89,1.85,27.85,4,10.48,1.6,18.07.55,28.56,2.15a91.74,91.74,0,0,0,29.48,5.73,7.72,7.72,0,0,0,4-1.84c1.09-1.11,3.8-.51,5.24-.88,8.51,2.52,16,9.53,24.45,8.68,2.35-.17,5.94-2.76,5.38-5.57-2.8-14.08-8.84-24.83-16-34.46-6.74-8.88-16-9.52-25.37-12.25-13-3.49-21.46-20.82-27.18-37.56-3.88-13-6.36-33-17.56-32.79-13.18,1.18-25.58,10.63-38.64,3.75-9.07-5.33-16.33-10.28-25.74-13A38.85,38.85,0,0,0,318.07.58c-10.83,1-23.15-4.34-31.2,7.38-12.08,3.44-17.9-1.86-27.78,6.1-12.58,10.75-25.32,22.8-39.58,25.1a46,46,0,0,1-23.13-1c-2.71-.58-11.83-12.68-14.56-16.63-5.12-7.18-13.58-2.95-19.33,1.86a81.92,81.92,0,0,1-29.13,20c-3.79.52-7.06-2.88-11.22-3.11-9.93,1.22-17.47,9-26.29,12.48C63.34,57.87,67.38,64.08,66.1,63.13c-3.25,0-4.2-7-8.18-8.51-5.43-1.18-11,2.33-14.78,6.22C32,71.24,18.54,81.79,5.48,74.9c.73,1.52.93,3.57,1.83,3.77C25.62,88,39.82,103.92,59.88,103.56c2-.92,4.5-2.39,6.84-2.55a59.76,59.76,0,0,0,11.74-.83C85,100.25,95.2,118,96.34,127Z" transform="translate(-0.24)"/><path class="cls-3" d="M435.26,84.3c9.41,2.73,18.63,3.37,25.37,12.25,7.11,9.63,13.15,20.38,15.95,34.45.57,2.82-3,5.41-5.38,5.57-8.48.86-15.94-6.15-24.45-8.67-1.44.36-4.16-.22-5.23.88a7.68,7.68,0,0,1-4,1.84,91.74,91.74,0,0,1-29.49-5.73c-10.49-1.6-18.07-.55-28.56-2.15-9.95-2.17-18.24.76-27.85-4-12.86-4.81-21.35-4-38.47,2.43-9,3.36-34.62,8.66-42.89,15-4.31,4.45-10.1,2.53-14.77,6.22a145.46,145.46,0,0,0-9.74-14.15l81.68-46.7Z" transform="translate(-0.24)"/><path class="cls-4" d="M255.75,130.33s-36.74,22.59-31.86-4c0,0,31.72-64.53,51.78-64.89,0,0,14.45-.23,22-1.29,0,0,12.91,11.57,28.58,5.54,0,0,62.24-13.45,66.1-3.85,0,0,24.79,6,30.8,13.42,0,0,8.63,19.39,20,17.82,0,0,33,21.32,15.52,23.57,0,0-10.27,3.85-15.5,4.73,0,0-72.89-11.78-76.73-18C366.46,103.4,287.53,75.92,255.75,130.33Z" transform="translate(-0.24)"/><path class="cls-5" d="M254.17,137.62s-24.56,28.81-36.09,6.77c0,0-35.8-27.06-24-42.7,0,0,46.19-61.38,85-63.07,0,0,4.16.23,12.4-9.42,0,0,21.25-9.54,29.65,4.41,0,0,24.89,19.54,36.43,16.66,0,0,8.75,11.33,15.41,6.71,0,0-64.37,19.05-71.51,6,0,0-27.57-16.77-59.23,29.59C242.28,92.61,231.7,128,254.17,137.62Z" transform="translate(-0.24)"/><path class="cls-6" d="M232.91,173.21c-4.31,4.46-8.79,10.21-13.46,13.93-2.51,1.47-6.14.68-9,1.4-3.79.52-7.6-2.32-10.15-4.23-11.46-11.91-30.64-13.13-40.32-28-1.64-1.71-2.91-2.66-4.72-3.05-.54.56-2.52,1.47-3.06,2-5.6.13-11-1-16.26-.16-8.66,2.17-16.65-4.29-24.1-11.3-4.18-3.6-9.44-6.09-14.16-9.14-8.16-5.13-7.91-21.25-15.88-24.33-12.69-6.12-24.72,4.06-37.58-.74-7.43-3.64-14.13-5.77-20.86-11.27-4.91-5.11-10.53-8.35-16-12.9-1.27-1-4.2-7-4-8.29.71-1.86,3.79-.52,5.77-1.44,5.41-2.2,7.63,5.7,10.9,9.1C24.18,88.4,30,87,35.38,88.13a19.11,19.11,0,0,1,5.82,5.31c2.74,4,7.24,1.56,11.56.49C58.17,91.72,63.45,97.6,69,97.46c7.42.26,14-7.73,20-3.74-5.09-3.79,22.77.23,17,1.67.54-.56,2,2.46,2.2,4.53-.18,1.29,0,3.36-.52,3.92-4.31,4.46-4.43,12.51-6.2,18.86.37.77,15,2.6,20.3,8.45,4,4.92,7.48,10.39,12.91,11.56,1.43-.35,2.32-3.53,3.76-3.9,3.26,0,43.41-23.83,47.76-21.54,2.54,1.9,5.65,6.61,4.76,9.79-1.2,9.17,3.35,13.53,4.66,21.23.2,2.06-1,4.48-.86,6.55,1.12,5.63,3.52,12.22,6.6,13.55,5.08,3.81,11.42,5.19,16.28,3.54Z" transform="translate(-0.24)"/><path class="cls-7" d="M381,15.92s-20.16,11.8-38.7-4.69c0,0-15.86-8.49-19.47-7.6L317.63.49S292.3-2.79,287.14,7.68c0,0-12.54,3.35-14.36,1.27,0,0-9.77-1.78-22.67,13.27" transform="translate(-0.24)"/><path class="cls-8" d="M127.77,160.52c-4.11-1.8-23.46-12.73-28.56-18.78-8.12-9-15.65-17.77-23.67-27.59a2.11,2.11,0,0,0-2.77-.15c-5.63,5.06-11.92,1-17.2,3.45-2.28.84-4.43,3.08-6.85,2.56-12.66-2.75-24-10.62-34.46-21C9.89,94.51,6.35,88.35,2.1,82.93,1.37,81.43,0,79.78.27,78c-.13-1.37,1.92-.48,3.06-.91,1.27,1,2.25,3,3.94,4.22,3,2.91,7,3.33,9.68,6.6,3,2.91,5.35,6.55,8.73,9.08a21.13,21.13,0,0,0,6.77,2.82A74.79,74.79,0,0,0,58.14,105c3.7-4.58,8.78-.79,12.76-.38,1.21.27,2.3,1.41,3.75,2.17,3.62.79,7.58-1.05,9.89,2.6,4.52,8.16,9.14,15.45,14.84,21.64,4.62,5,24.58,18.36,29.89,20.42,7,3.31,14.21.38,21.09,2.33C151,153.87,144.77,165.75,127.77,160.52Z" transform="translate(-0.24)"/></g></g><text class="cls-9" transform="translate(71.45 111.57)">MELIS<tspan class="cls-10" x="140.04" y="0">S</tspan><tspan class="cls-11" x="169.7" y="0">A </tspan><tspan class="cls-12" x="210.31" y="0">W</tspan><tspan x="256.1" y="0">ONG</tspan></text></g></g></g></svg>