<?xml version="1.0" encoding="utf-8"?>
<!-- Generator: Adobe Illustrator 22.0.1, SVG Export Plug-In . SVG Version: 6.00 Build 0)  -->
<svg version="1.1" id="Layer_1" xmlns="http://www.w3.org/2000/svg" xmlns:xlink="http://www.w3.org/1999/xlink" x="0px" y="0px"
	 viewBox="0 0 476.7 188.6" style="enable-background:new 0 0 476.7 188.6;" xml:space="preserve">
<style type="text/css">
	.st0{opacity:0.9;}
	.st1{fill:#C8EEE4;}
	.st2{opacity:0.9;fill:#7ED8C0;enable-background:new    ;}
	.st3{fill:#95DECB;}
	.st4{fill:#AFE6D8;}
	.st5{fill:#DDF5EE;}
	.st6{fill:none;}
	.st7{fill:#F2FBF8;}
	.st8{enable-background:new    ;}
</style>
<title>logo</title>
<g id="Layer_2_1_">
	<g id="Background">
		<g id="Layer_2-2">
			<g class="st0">
				<g class="st0">
					<path class="st1" d="M96.1,127c1.3,10.3,24.8,12.8,27.8,15.4c13.2,8.9,64.1-11.3,63.9-6.6c-0.9,6.6,8.9,38.3,13.8,40.1
						c12,4.6,24.2-0.1,34.8-10c5.2-4.2,6.1-7.4,8.3-6.3c0.9,0.2,4.1-11.7,10.9-17.6c4.7-3.7,10.5-1.8,14.8-6.2
						c8.3-6.3,33.9-11.6,42.9-15c17.1-6.4,25.6-7.2,38.5-2.4c9.6,4.8,17.9,1.8,27.9,4c10.5,1.6,18.1,0.6,28.6,2.2
						c9.4,3.5,19.4,5.5,29.5,5.7c1.5-0.2,2.9-0.9,4-1.8c1.1-1.1,3.8-0.5,5.2-0.9c8.5,2.5,16,9.5,24.5,8.7c2.4-0.2,5.9-2.8,5.4-5.6
						c-2.8-14.1-8.8-24.8-16-34.5c-6.7-8.9-16-9.5-25.4-12.2c-13-3.5-21.5-20.8-27.2-37.6c-3.9-13-6.4-33-17.6-32.8
						c-13.2,1.2-25.6,10.6-38.6,3.8c-9.1-5.3-16.3-10.3-25.7-13c-2.6-1.6-5.4-2.8-8.3-3.8c-10.8,1-23.1-4.3-31.2,7.4
						c-12.1,3.4-17.9-1.9-27.8,6.1c-12.6,10.8-25.3,22.8-39.6,25.1c-7.7,1.6-15.6,1.3-23.1-1c-2.7-0.6-11.8-12.7-14.6-16.6
						c-5.1-7.2-13.6-3-19.3,1.9c-8.1,8.7-18.1,15.5-29.1,20c-3.8,0.5-7.1-2.9-11.2-3.1c-9.9,1.2-17.5,9-26.3,12.5
						c-32.5,5.1-28.5,11.3-29.7,10.4c-3.3,0-4.2-7-8.2-8.5c-5.4-1.2-11,2.3-14.8,6.2C31.8,71.2,18.3,81.8,5.2,74.9
						c0.7,1.5,0.9,3.6,1.8,3.8c18.3,9.3,32.5,25.2,52.6,24.9c2-0.9,4.5-2.4,6.8-2.6c3.9,0.1,7.9-0.2,11.7-0.8
						C84.8,100.2,95,118,96.1,127z"/>
					<path class="st2" d="M435,84.3c9.4,2.7,18.6,3.4,25.4,12.2c7.1,9.6,13.1,20.4,16,34.4c0.6,2.8-3,5.4-5.4,5.6
						c-8.5,0.9-15.9-6.1-24.5-8.7c-1.4,0.4-4.2-0.2-5.2,0.9c-1.1,1-2.5,1.6-4,1.8c-10.1-0.3-20-2.2-29.5-5.7
						c-10.5-1.6-18.1-0.6-28.6-2.2c-10-2.2-18.2,0.8-27.9-4c-12.9-4.8-21.4-4-38.5,2.4c-9,3.4-34.6,8.7-42.9,15
						c-4.3,4.4-10.1,2.5-14.8,6.2c-3-4.9-6.2-9.6-9.7-14.1l81.7-46.7L435,84.3z"/>
					<path class="st3" d="M255.5,130.3c0,0-36.7,22.6-31.9-4c0,0,31.7-64.5,51.8-64.9c0,0,14.5-0.2,22-1.3c0,0,12.9,11.6,28.6,5.5
						c0,0,62.2-13.5,66.1-3.8c0,0,24.8,6,30.8,13.4c0,0,8.6,19.4,20,17.8c0,0,33,21.3,15.5,23.6c0,0-10.3,3.8-15.5,4.7
						c0,0-72.9-11.8-76.7-18C366.2,103.4,287.3,75.9,255.5,130.3z"/>
					<path class="st4" d="M253.9,137.6c0,0-24.6,28.8-36.1,6.8c0,0-35.8-27.1-24-42.7c0,0,46.2-61.4,85-63.1c0,0,4.2,0.2,12.4-9.4
						c0,0,21.2-9.5,29.6,4.4c0,0,24.9,19.5,36.4,16.7c0,0,8.8,11.3,15.4,6.7c0,0-64.4,19-71.5,6c0,0-27.6-16.8-59.2,29.6
						C242,92.6,231.5,128,253.9,137.6z"/>
					<path class="st5" d="M232.7,173.2c-4.3,4.5-8.8,10.2-13.5,13.9c-2.5,1.5-6.1,0.7-9,1.4c-3.8,0.5-7.6-2.3-10.1-4.2
						c-11.5-11.9-30.6-13.1-40.3-28c-1.6-1.7-2.9-2.7-4.7-3.1c-0.5,0.6-2.5,1.5-3.1,2c-5.6,0.1-11-1-16.3-0.2
						c-8.7,2.2-16.6-4.3-24.1-11.3c-4.2-3.6-9.4-6.1-14.2-9.1c-8.2-5.1-7.9-21.2-15.9-24.3c-12.7-6.1-24.7,4.1-37.6-0.7
						c-7.4-3.6-14.1-5.8-20.9-11.3c-4.9-5.1-10.5-8.3-16-12.9c-1.3-1-4.2-7-4-8.3c0.7-1.9,3.8-0.5,5.8-1.4c5.4-2.2,7.6,5.7,10.9,9.1
						c4.1,3.6,10,2.2,15.3,3.3c2.3,1.3,4.3,3.2,5.8,5.3c2.7,4,7.2,1.6,11.6,0.5c5.4-2.2,10.7,3.7,16.2,3.5c7.4,0.3,14-7.7,20-3.7
						c-5.1-3.8,22.8,0.2,17,1.7c0.5-0.6,2,2.5,2.2,4.5c-0.2,1.3,0,3.4-0.5,3.9c-4.3,4.5-4.4,12.5-6.2,18.9c0.4,0.8,15,2.6,20.3,8.4
						c4,4.9,7.5,10.4,12.9,11.6c1.4-0.4,2.3-3.5,3.8-3.9c3.3,0,43.4-23.8,47.8-21.5c2.5,1.9,5.6,6.6,4.8,9.8
						c-1.2,9.2,3.4,13.5,4.7,21.2c0.2,2.1-1,4.5-0.9,6.6c1.1,5.6,3.5,12.2,6.6,13.6c5.1,3.8,11.4,5.2,16.3,3.5L232.7,173.2z"/>
					<path class="st6" d="M380.8,15.9c0,0-20.2,11.8-38.7-4.7c0,0-15.9-8.5-19.5-7.6l-5.2-3.1c0,0-25.3-3.3-30.5,7.2
						c0,0-12.5,3.3-14.4,1.3c0,0-9.8-1.8-22.7,13.3"/>
					<path class="st7" d="M127.5,160.5c-4.1-1.8-23.5-12.7-28.6-18.8c-8.1-9-15.7-17.8-23.7-27.6c-0.8-0.7-1.9-0.8-2.8-0.2
						c-5.6,5.1-11.9,1-17.2,3.4c-2.3,0.8-4.4,3.1-6.8,2.6c-12.7-2.8-24-10.6-34.5-21C9.7,94.5,6.1,88.3,1.9,82.9
						C1.1,81.4-0.2,79.8,0,78c-0.1-1.4,1.9-0.5,3.1-0.9c1.3,1,2.3,3,3.9,4.2c3,2.9,7,3.3,9.7,6.6c3,2.9,5.4,6.6,8.7,9.1
						c2.1,1.3,4.4,2.3,6.8,2.8c8.2,3.2,16.9,5,25.7,5.2c3.7-4.6,8.8-0.8,12.8-0.4c1.2,0.3,2.3,1.4,3.8,2.2c3.6,0.8,7.6-1.1,9.9,2.6
						c4.5,8.2,9.1,15.4,14.8,21.6c4.6,5,24.6,18.4,29.9,20.4c7,3.3,14.2,0.4,21.1,2.3C150.8,153.9,144.5,165.8,127.5,160.5z"/>
				</g>
			</g>
			<g class="st8">
				<path d="M94.8,101.8c-0.4,1-1,1.5-1.9,1.5c-1,0-1.7-0.5-2.1-1.5l-10-28v35.9c0,1.2-0.6,1.9-1.9,1.9h-1.1c-1.2,0-1.9-0.6-1.9-1.9
					V63c0-1.2,0.6-1.9,1.9-1.9h1.5c1.1,0,1.8,0.5,2.2,1.5l11.2,31.8l11.4-31.8c0.3-0.9,1.1-1.5,2.2-1.5h1.7c1.2,0,1.9,0.6,1.9,1.9
					v46.7c0,1.2-0.6,1.9-1.9,1.9h-1.3c-1.2,0-1.9-0.6-1.9-1.9V73.8L94.8,101.8z"/>
				<path d="M137.5,111.6h-16.8c-1.2,0-1.9-0.6-1.9-1.9V63c0-1.2,0.6-1.9,1.9-1.9h16.6c1.2,0,1.9,0.6,1.9,1.9V64
					c0,1.2-0.6,1.9-1.9,1.9h-13.3v17.9H135c1.2,0,1.9,0.6,1.9,1.9v0.9c0,1.2-0.6,1.9-1.9,1.9h-11.1v18.6h13.5c1.2,0,1.9,0.6,1.9,1.9
					v0.9C139.3,110.9,138.7,111.6,137.5,111.6z"/>
				<path d="M165.5,108.7v1c0,1.2-0.6,1.9-1.9,1.9h-15.8c-1.2,0-1.9-0.6-1.9-1.9V63c0-1.2,0.6-1.9,1.9-1.9h1.4
					c1.2,0,1.9,0.6,1.9,1.9v43.8h12.5C164.8,106.8,165.5,107.5,165.5,108.7z"/>
				<path d="M174.8,111.6h-1.4c-1.2,0-1.9-0.6-1.9-1.9V63c0-1.2,0.6-1.9,1.9-1.9h1.4c1.2,0,1.9,0.6,1.9,1.9v46.7
					C176.7,110.9,176,111.6,174.8,111.6z"/>
				<path d="M206.2,78.7h-1.4c-1.2,0-1.9-0.6-1.9-1.9v-4.8c0-4.8-1.9-6.9-6.5-6.9s-6.5,2.1-6.5,6.9v3.5c0,3.4,1.2,4.4,4.5,6.3l7.2,4
					c3.9,2.2,6.5,4.8,6.5,9.1v6.7c0,7.3-4,10.5-11.6,10.5h-0.1c-7.6,0-11.6-3.1-11.6-10.5v-6.5c0-1.2,0.6-1.9,1.9-1.9h1.4
					c1.2,0,1.9,0.6,1.9,1.9v5.3c0,4.8,1.9,7.1,6.6,7.1s6.6-2.3,6.6-7.1v-4c0-3.4-1.3-4.7-4.8-6.6l-7.1-3.9c-4.4-2.4-6.4-4.5-6.4-8.9
					v-6c0-7.1,4.6-10.4,11.5-10.4h0.1c6.9,0,11.5,3.3,11.5,10.4v5.9C208,78.1,207.4,78.7,206.2,78.7z"/>
			</g>
			<g class="st8">
				<path d="M236.3,78.7h-1.4c-1.2,0-1.9-0.6-1.9-1.9v-4.8c0-4.8-1.9-6.9-6.5-6.9c-4.5,0-6.5,2.1-6.5,6.9v3.5c0,3.4,1.2,4.4,4.5,6.3
					l7.2,4c3.9,2.2,6.5,4.8,6.5,9.1v6.7c0,7.3-4,10.5-11.6,10.5h-0.1c-7.6,0-11.6-3.1-11.6-10.5v-6.5c0-1.2,0.6-1.9,1.9-1.9h1.4
					c1.2,0,1.9,0.6,1.9,1.9v5.3c0,4.8,1.9,7.1,6.6,7.1s6.6-2.3,6.6-7.1v-4c0-3.4-1.3-4.7-4.8-6.6l-7.1-3.9c-4.4-2.4-6.4-4.5-6.4-8.9
					v-6c0-7.1,4.6-10.4,11.5-10.4h0.1c6.9,0,11.5,3.3,11.5,10.4v5.9C238.1,78.1,237.5,78.7,236.3,78.7z"/>
			</g>
			<g class="st8">
				<path d="M268.2,111.6h-1.5c-1.1,0-1.8-0.5-2-1.7l-2.2-10.7h-12.4l-2.2,10.7c-0.2,1.2-0.9,1.7-2,1.7h-1.2c-1.3,0-1.9-0.7-1.7-2.1
					l9.9-46.7c0.2-1.2,0.9-1.7,2.1-1.7h2.7c1.2,0,1.9,0.5,2.1,1.7l10.1,46.7C270.1,110.9,269.4,111.6,268.2,111.6z M261.5,94.6
					l-5.3-26.2L251,94.6H261.5z"/>
			</g>
			<g class="st8">
				<path d="M326.1,63.2l-7.8,46.7c-0.2,1.1-0.9,1.7-2,1.7h-1.5c-1.1,0-1.9-0.6-2.1-1.7l-7.8-38.7l-7.8,38.7c-0.1,1.2-0.9,1.7-2,1.7
					h-1.7c-1.2,0-1.8-0.6-2-1.7l-7.8-46.7c-0.2-1.3,0.4-2,1.7-2h1.4c1.2,0,1.8,0.6,2,1.8l5.8,38.8l7.6-39c0.2-1.1,1-1.7,2.1-1.7h1.4
					c1.1,0,1.9,0.6,2.1,1.7l7.6,39l5.8-38.8c0.1-1.2,0.9-1.8,1.9-1.8h1.2C325.7,61.2,326.3,61.9,326.1,63.2z"/>
			</g>
			<g class="st8">
				<path d="M343.5,60.6h0.6c7.6,0,11.8,3.5,11.8,10.7v30.2c0,7.2-4.2,10.7-11.8,10.7h-0.6c-7.6,0-11.8-3.5-11.8-10.7V71.2
					C331.7,64,335.9,60.6,343.5,60.6z M343.8,107.5c4.8,0,6.9-2,6.9-7.3V72.5c0-5.3-2.1-7.3-6.9-7.3s-6.9,2-6.9,7.3v27.7
					C336.9,105.5,339,107.5,343.8,107.5z"/>
				<path d="M367.5,111.6h-1.1c-1.2,0-1.9-0.6-1.9-1.9V63c0-1.2,0.6-1.9,1.9-1.9h1.8c1.1,0,1.8,0.5,2.1,1.5l14.3,36.7V63
					c0-1.2,0.6-1.9,1.9-1.9h1.1c1.2,0,1.9,0.6,1.9,1.9v46.7c0,1.2-0.6,1.9-1.9,1.9H386c-1.1,0-1.8-0.5-2.2-1.5l-14.5-37.4v37.1
					C369.4,110.9,368.7,111.6,367.5,111.6z"/>
				<path d="M422.2,88.2v13.3c0,7.3-4.2,10.7-11.8,10.7h-0.6c-7.6,0-11.8-3.2-11.8-10.7V71.2c0-7.1,4.2-10.7,11.8-10.7h0.6
					c7.6,0,11.8,3.6,11.8,10.7v4.9c0,1.2-0.6,1.9-1.9,1.9H419c-1.2,0-1.9-0.6-1.9-1.9v-3.6c0-5.3-2.1-7.3-6.9-7.3s-6.9,2-6.9,7.3
					v27.7c0,5.3,2.1,7.3,6.9,7.3s6.9-2,6.9-7.3v-9.3h-5.3c-1.2,0-1.9-0.7-1.9-1.9v-0.8c0-1.2,0.6-1.9,1.9-1.9h8.6
					C421.6,86.3,422.2,87,422.2,88.2z"/>
			</g>
		</g>
	</g>
</g>
</svg>
