<svg xmlns="http://www.w3.org/2000/svg" xmlns:xlink="http://www.w3.org/1999/xlink" viewBox="0 0 2048 258.94"><defs><style>.cls-1{fill:url(#linear-gradient);}</style><linearGradient id="linear-gradient" y1="129.47" x2="2048" y2="129.47" gradientUnits="userSpaceOnUse"><stop offset="0.06" stop-color="#00b182"/><stop offset="0.39" stop-color="#003f37"/><stop offset="0.73" stop-color="#00b182" stop-opacity="0.5"/><stop offset="0.94" stop-color="#00ffbf" stop-opacity="0.7"/></linearGradient></defs><title>seattle-skyline</title><g id="Layer_2" data-name="Layer 2"><g id="Background"><g id="Layer_2-2" data-name="Layer 2"><path class="cls-1" d="M5.08,148.33c-1.39.9-3,1.38-4.83,2.3C0,177,0,203.21,0,229.38c.17,0,.38-.07.49,0,1.85,1.33,3.68,2.68,5.51,4-1.83,1-3.67,2-5.75,3.21q0,11.16-.06,22.31H362.41c-1.33-3.74-3.34-6.73-1.39-10.39a18.35,18.35,0,0,1,1.6-2.17c.79.83,2.32,1.73,2.25,2.48-.26,2.73.78,4.14,3.21,5.22a6.18,6.18,0,0,1,3.1,3.13c.18.54.36,1.13.52,1.73h4.51c-.48-1.74-1-3.48-1.34-5.24a20.15,20.15,0,0,1-.25-4.4c0-.27.95-.78,1-.76,1.17,1.33,3,2.58,3.25,4.09a24,24,0,0,1-.21,6.31h57.6c.34-.34,1.62-1,2.33-1.5,0,.5.07,1,.11,1.5H497l-2-4.06a7,7,0,0,1,3.9,2c.12.12-.71,1.18-1.33,2H679.68c-.49-.35-1-.69-1.47-1-.11-.07.52-2.06,1-2.19a28.25,28.25,0,0,1,6.65-.84c.7,0,1.39,1.28,2.09,2-.42.7-.86,1.42-1.29,2.06h39c-2.73-2.3-4.59-6.59-3.35-8.25a3.68,3.68,0,0,1,3.25-1.09c3.11,1.11,4.67,5.89,3.58,9.34h25.91c0-1-.05-2-.08-3.06a9.68,9.68,0,0,1,1-3.08c.25-.49.56-1,.85-1.42.38.38,1.06.74,1.09,1.14a59.8,59.8,0,0,1,.1,6.42H858c-.16-2,0-4,0-6.06.73-1.4.78-2.4,1.24-3.16.37-.6,1.24-.91,1.88-1.34a5.73,5.73,0,0,1,.84,1.89c.07,2.89.11,5.78,0,8.67h9.55c0-.84,0-1.67,0-2.5,0-2.81-.54-5.63-.42-8.42,0-.91,1.38-1.77,2.13-2.64a10.42,10.42,0,0,1,.73,2.52c0,3.68,0,7.36,0,11h5v-9.06a26.74,26.74,0,0,1,1.28-4.5c.71,1,1.89,1.87,2,2.91A59.68,59.68,0,0,1,883,258l0,.93h145.56a5.82,5.82,0,0,0-.48-.41c.73-.72,1.45-2,2.19-2,4.6,0,9.21.23,13.81.4a9.31,9.31,0,0,1-.54,2.06h7l-1.37-1a34.08,34.08,0,0,1,3.72-1.51,4.09,4.09,0,0,1,2.45,0c1.89.73,3.7,1.66,5.54,2.52h20.28a9.66,9.66,0,0,1-.2-1.56,12.25,12.25,0,0,1,3,0,32.22,32.22,0,0,1,3.91,1.52h8.57a5.18,5.18,0,0,1-.3-1.06c.73-.74,1-1.2,1.19-1.17,1.92.31,3.82.71,5.72,1.08-.16.32-.32.75-.47,1.15h2.7a7.91,7.91,0,0,1,.06-1.27c2,.14,4,.29,6,.41s3.88.14,5.81.33a4.5,4.5,0,0,1,1.47.53h4.11c.25-.59.51-1.31.7-1.29,2.89.3,5.77.76,8.66,1.18l-.1.11h340.23a5.17,5.17,0,0,1-1-2.5,71,71,0,0,1,.89-8.56c-.2-2.47-.4-3.94-.6-5.41,1.16.76,2.8,1.26,3.37,2.33a22.38,22.38,0,0,1,2.16,6.56,12.31,12.31,0,0,1-.1,6.07,3.4,3.4,0,0,1-1.48,1.51h10.74a2.09,2.09,0,0,1,.08-.23l.48.23h288.69c.24-.2.47-.38.71-.56.07.18.16.37.24.56h95.08c-.92-1.27-2.25-2.56-2.2-3.79a30.68,30.68,0,0,1,1.9-8.06c.24-.72,1.37-1.15,2.08-1.71a9,9,0,0,1,.81,2.41c.11,2.36,0,4.72,0,7.09a18.28,18.28,0,0,1-2,4.06h176q0-31.31,0-62.56c-2.89,1.06-6.27,1.51-8.58,3.31-3.89,3.05-8.58,3.05-12.71,3.45-18.79,1.85-36.3-1.57-50.6-15.16-1.3-1.24-2.25-2.94-3.65.19-.51,1.17-2.84,1.81-4.46,2.14-3.91.82-7.81-2.77-11.94-.11-.42.27-2.43-1.81-3.61-2.9-2.46-2.24-4.55-4.5-8.14-1.1-1,1-4.61.58-6.21-.45-4.09-2.65-6.91-2-8.1,2.62-2.13,8.24-4.17,8.76-11.42,4.24a144.29,144.29,0,0,0-18.92-9.82c-2-.87-5,.08-7.39.66-2.22.53-4.22,1.94-6.43,2.53-7.07,1.89-14.15,3.79-21.32,5.19-1.62.31-3.56-1.74-5.46-2.14-2.41-.52-5.16-1.18-7.38-.51-5.14,1.55-10,3.89-15.06,5.85-8.18,3.18-16.36,6.37-24.6,9.41-1.42.52-3.4.9-4.64.32-4.2-2-8.36-2.89-13-1.83-1,.22-2.24-.87-3.37-1.36.88-.57,1.8-1.09,2.64-1.72s2.16-.74.49-2.66c-2.85-3.29-6.14-1.88-9.26-2.09-3.87-.26-7.78-.13-11.66,0a7.73,7.73,0,0,0-3.58.94c-.48.28-.37,1.56-.53,2.38l1.8.21a17.08,17.08,0,0,1,3.82.51c.58.21.84,1.3,1.25,2-.62.31-1.25.89-1.86.88-2-.06-4.06-.47-6.08-.47-1.84,0-1.77.16-1.4-1.7a1.64,1.64,0,0,0-.8-1.34,2.09,2.09,0,0,0-1.8.36,20.38,20.38,0,0,0-1.61,3.2c-.48-1.29-.68-2.82-1.52-3.79-1.15-1.3-3.68-3.34-4.1-3-3.85,2.84-7.33-.54-11-.37-6.67.31-13.38-.44-20.08-.83-4.7-.27-9.43-1.2-14.07-.82-3.93.33-7.77,2-11.56,3.35-.55.19-.69,1.77-.79,2.73,0,.2,1,.55,1.59.75,1.75.59,3.59,1.78,5.27,1.58a30.28,30.28,0,0,0,8.11-2.48c1.55-.66,2.87-2.81,3.86.49.09.29,1.15.39,1.77.4,3.8.08,7.6.08,11.4.22.49,0,1.4.84,1.34,1-.22.65-.77,1.67-1.22,1.69-3.72.14-7.45.07-11.17.08-4.28,0-8.56-.09-12.83.07-2.6.1-5.18.65-7.77.92-3.85.39-6-1.12-5.71-5.27a18.18,18.18,0,0,0-.08-5.47c-.4-1.54-1.67-2.85-2.55-4.25-1.12,1.37-3.33,2.88-3.17,4.09.93,7.16-3.83,14.21-.31,21.43.38.79-.95,2.51-1.69,3.66-.12.18-1.9-.24-2-.56-.87-4.73-1.72-9.46-2.27-14.24-.29-2.59.11-5.25,0-7.87,0-.54-1.38-1.57-1.66-1.43-4.52,2.19-10.46-1.72-14.27,3.33-.15.19-.47.46-.63.41-4.53-1.37-4.53-.94-9-1-3.73,0-7.44-1.66-11.18-1.77-9.15-.28-18.34-.36-27.49,0-4,.17-7.92,1.69-11.89,2.56-.77.17-1.72.51-2.33.22-7.15-3.45-14.44-1.8-21.81-1a31.89,31.89,0,0,1-12-1,40.28,40.28,0,0,0-18.84-1.07c-4.67.8-9.68-.52-14.55-.76a83.58,83.58,0,0,0-8.67,0c-3.53.2-7,.73-10.59,1-11.55.71-23.1,1.65-34.67,1.88-5.37.11-10.78-1.73-16.17-1.75-10.86-.05-21.81-.17-32.55,1.14-7.28.89-14.18,1.2-21.41-.09-4.73-.85-9.75,0-14.64-.19-9-.25-18-.72-27.08-.95-5.78-.14-12.09-1.49-17.22.33-7,2.49-13.35-2.45-20.15.42-3.4,1.43-7.51-1.87-11.69-.87a60.42,60.42,0,0,1-12.37,1.46c-2.64.06-5.28-1.16-8-1.31q-12.52-.72-25.08-1c-2.38-.05-5,2.29-6.88-1.05-.08-.14-.73-.15-.95,0-4.17,3-9.16-.47-13.48,1.7-.94.47-2.24.26-3.38.27-9.72,0-19.45.16-29.17-.09-2.9-.07-5.76-1.59-8.68-1.8-2.49-.18-5,.75-7.58.86-9.08.42-18.2.39-27.24,1.16a69.34,69.34,0,0,1-13.83-.58c-4.59-.5-9.94-3.76-15,.25-1.29,1-4.57-.77-6.93-.72-4,.08-8.06.91-12.08.86-8.2-.11-16.39-.86-24.59-.86-7.92,0-15.84.88-23.76.85-9.86,0-19.72-.71-29.58-.89-8.72-.16-17.47-.43-26.16.1-6.51.39-12.58.34-19-1.83-3.8-1.3-8.62.69-13,.64-15.7-.19-31.39-.77-47.09-.91-46.19-.42-92.39-.67-138.58-1.07-4.76,0-9.51-.93-14.26-.89-6.7.05-13.4,1-20.08.84-12.62-.25-25.23-1-37.84-1.49a8.87,8.87,0,0,0-2.41.6,5.73,5.73,0,0,0,.83,1.74c2.92,2.86,2.15,5.28-.45,8-3.16,3.26-6.24,6.19-11.34,5.31-3.46-.6-3.66,1.77-3.55,4.32a4.72,4.72,0,0,1-.62,1.65,8.7,8.7,0,0,1-1.33-1.46c-1.74-3,.8-7.59,4.64-8.56,2.41-.6,5-1,7.11-2.11,1.41-.77,2.17-2.74,3.23-4.17-1.39-.57-2.88-1.77-4.16-1.58-3.36.5-6.6,1.82-10,2.4-2.22.38-6.8,2.92-4-3.39,1-2.23,1.06-5,1-7.53,0-1.17-1.43-2.3-2.21-3.45-.89.67-2.36,1.2-2.55,2a36.5,36.5,0,0,0-1.05,8.06c0,3.12-.54,5.32-4.26,5.83-3.11.43-3.18,3-2.72,5.48.22,1.22.7,2.4.88,3.62a5.1,5.1,0,0,1-.44,1.8c-.56-.22-1.49-.3-1.64-.68a31.71,31.71,0,0,1-2.39-7.18c-.22-1.58,2.22-3.44-.49-4.89,1-1.07,2-2.21,3.18-3.19.42-.36,1.18-.34,1.78-.49-.59-.52-1.15-1.41-1.79-1.47a42.42,42.42,0,0,0-4.9.15c-3.47.06-7,.58-10.39,0-3.57-.62-4.29,1-3.78,3.63.43,2.22,1.81,4.23,2.6,6.4a4.13,4.13,0,0,1,.17,3,2.8,2.8,0,0,1-2.72.27c-1.56-1.34-3.68-2.91-4-4.67-1.08-6.15-1.43-12.42-2.17-18.64-1.29-10.79-2.69-21.56-4-32.35-.46-3.84-.61-7.73-1-11.58-.59-5.4-1.57-10.76-1.92-16.17-.56-8.52-1-17.06-1-25.59.06-6.26,1.26-12.5,1.57-18.77.1-2-1.28-4-1.5-6.12-.37-3.57-.4-7.17-.49-10.76,0-1.12.24-2.24.31-3.36.35-5.53.42-11.1,1.18-16.56.21-1.46,2.33-3.15,4-3.79,2.15-.86,6.67-1,9-1.07,2.57,0,1.6-.76,2.12-3.54.26-1.42,3.05-2.4,4.74-3.5a10.25,10.25,0,0,1,2-.81c-.3-.54-.48-1.26-.93-1.6-3.51-2.64-6.7-5.54-11.66-5.82-2.66-.15,2.63,1.24,0,0-1.66-.79-5.59-.38-7.37-.84C669.9,16.79,667.2.21,665,0c-1.47-.14-6,13.86-6.43,14.54-4.38,7.28-18.17,1.78-23.14,7.82-.64.78-.61,1.31-1.42,1.95a18.93,18.93,0,0,1,2.71,1.09c1.09.65,4.68,1.31,5,2.29,1.88,6.36,5.65,5.87,10.18,6.47,4.22.57,5,2.76,5.11,6,.12,5.66-.34,11.36.14,17,.44,5.07,1.34,9.86-2.42,14.29-.82,1,.28,3.45.29,5.23,0,11,.54,22-.13,33-.62,10.16-2.56,20.24-3.83,30.36-.76,6-1.2,12.13-2,18.16-1.55,11-3.33,22-4.94,32.94-.24,1.63.41,3.49-.13,5a44.13,44.13,0,0,1-3.55,6.44c-.78,1.34-1.63,2.65-2.33,4a22.25,22.25,0,0,0-1,2.81c-.68-1.12-2.13-2.45-1.9-3.32a67.34,67.34,0,0,1,4-11.23c1.93-4,1.31-5.44-3.14-5.45-5.16,0-10.33.11-15.5,0-9.19-.24-18.39-.7-27.58-.92-1.51,0-3,.69-4.54,1.06-.47.11-1.27.47-1.37.33-3.86-5.36-8.88.16-13.11-1.44-.29.84-1.08,2.05-.78,2.47a15.73,15.73,0,0,0,3.86,3.86,3.2,3.2,0,0,0,3-.37c4-3.44,8.35-4.22,12.9-1.54,4.18,2.47,8.13,5.35,12.14,8.11.35.24.4.92.59,1.39-1,.36-2.57,1.33-3,1-2.93-2.58-5.67-4.7-8.75-.27-.62-.66-1.51-1.23-1.82-2-2.24-5.76-2.77-6-7.24-1.89-3.51,3.21-6.67,2.83-10-.36-4.38-4.21-7.15-3.41-8.86,2.28a5.37,5.37,0,0,1-1.52,2.33,64.14,64.14,0,0,1-5.47,4.56c-.61.44-2.12.69-2.33.4a10.55,10.55,0,0,1-1-3c5.4-.65,3.13-7.16,7-9.15,2.35-1.19,4.31-3.14,6.45-4.76l1.89-1.46a9.56,9.56,0,0,0-2-1,18.25,18.25,0,0,0-3.3-.49c-4.86-.36-9.72-.9-14.58-.94-3.69,0-7.41,1-11.08.79-2.54-.12-7.67,2.42-6.37-4.41.12-.64-4.9-2.81-7.68-3.24-1.48-.22-3.32,1.73-4.94,2.79-.83.56-1.53,1.9-2.29,1.91-7.16,0-13.9,3.8-21.54,1.45-2.69-.83-7.91,1.65-9.8,4.22-3.36,4.59-7,1.76-9.8,1.12-3.46-.79-6.28-4.08-9.63-5.81a24.53,24.53,0,0,0-7-1.86c-2.83-.49-5.8-1.29-8.56-.91-5.67.79-8.18-2.95-11.48-6.3-1.85-1.87-5-2.84-7.66-3.32-.79-.13-2.53,2.71-3.12,4.43-1.15,3.31-5.22,6.13-2.09,10.31-.63.13-1.74.49-1.81.34-2.57-5.19-6.58-6.33-12-5-2.62.66-5.54.09-8.24.55-.51.09-1,2.43-.88,3.68.14,1.7.33,3.85,1.4,4.92,2.53,2.56,0,4.73-.88,5.77-2,2.34-1.24,4.05-.79,6.54.55,3,1.77,2.35,3.72,2a7.48,7.48,0,0,1,3.66.68c.71.27,1.21,1.07,1.81,1.63a12.6,12.6,0,0,1-2.18.59c-7.77.63-8,.68-9.82-7.61-.9-4.14-.65-8.52-1-12.78-.22-2.54-1-5.06-.91-7.58.12-5.7.6-11.39.93-17.09.2-3.56-1.6-4.67-5-5.05a48.8,48.8,0,0,1-11.3-2.8c-5.18-1.88-20.16,3-23.11,7.94a7.26,7.26,0,0,0-.54,3.26c-.37,10.7-.81,21.39-.95,32.09-.05,3.75-2,4-4.72,3.38-.33-.08-.57-1.94-.53-2,4-1.27,1.53-2.7.23-4.29-3.2-3.88.3-7.86.27-11.81,0-2.88-.21-2.81-2.37-2.15-5.91,1.79-11.8,3-17.59-.51-.49-.29-1.31,0-2,0-13.53-.33-27.07-.51-40.59-1-11.06-.44-22.11-1.29-33.17-2a3.35,3.35,0,0,0-1,0c-13.62,3.5-27.19-1.41-40.86-.17-9,.82-18.1.14-27.16.2-.37,0-.74.62-1.36,1a62.78,62.78,0,0,0,2.4,7c.35.85,1.36,2.28,1.28,2.34-4.77,3.37-2.52,7.25-1,11.11a18.11,18.11,0,0,1,.65,2.43l-1.71-1.45c-3.92-3.33-6.43-6.89-5.17-12.69.48-2.23-1.2-5.58-5.45-4.9-1.27.2-3.47-1.25-4.19-2.53-2.87-5.13-5.41-6-11.12-4.93-8.33,1.49-15.73,6.79-24.71,5.75-2.18-.25-5.71-3-6.75,1.85-1.51-1.47-4-2.75-4.33-4.44-.67-3.53-.07-7.3-.24-10.95a41.36,41.36,0,0,0-1.1-8.55c-.23-.9-2-1.6-3.26-2-3.55-1.12-7.1-2.51-10.76-2.92a54.34,54.34,0,0,0-12.55.2,40.66,40.66,0,0,0-9.82,2.78,5.88,5.88,0,0,0-3.34,3.37,84.74,84.74,0,0,0-2,14.32c-.32,8.15,0,16.33-.13,24.49a14.11,14.11,0,0,1-.91,4.11,5.91,5.91,0,0,1-1.22,1.61,8.24,8.24,0,0,1-.8-2c-.4-3.18-.63-6.39-1-9.58-.73-5.58-7.35-8.89-13.9-7a8,8,0,0,1-2.75.55c-8.39-.91-10.21.88-10.43,9.52-.07,2.57-1.21,5.12-1.93,7.66-.1.35-.6.57-.92.86-.35-.58-1-1.16-1-1.75-.08-5,.14-10-.16-15-.1-1.72-1-4.37-2.26-4.87-3.57-1.44-2.33-3.75-2.31-6.31.09-8.77-.15-17.56-.37-26.33,0-.84-.58-2.17-1.22-2.41-6-2.33-10.83-7.64-18-7.38-4.11.15-8.61.91-10.63-4.3a1.14,1.14,0,0,0-.71-.64c-5-.37-9.95-.69-15.18-.77A11.17,11.17,0,0,0,0,140.38c2.94.22,5.89.42,8.83.67.92.08,1.83.26,2.74.4-.18.79-.08,1.89-.58,2.33A48.89,48.89,0,0,1,5.08,148.33ZM2038,215c.31.37.14,1.13.19,1.7l-5.71-1.28C2034,212.56,2036.1,212.66,2038,215Zm-23,35.88-.93,2-2-1A3.62,3.62,0,0,1,2015,250.84Zm-67.32-44.16c.47,1.31.18,2.88.21,4.34l-2.36-.64a22.52,22.52,0,0,1-.49-5.52C1945.93,205.46,1947.36,205.87,1947.65,206.68Zm-25.15,28.7a7.89,7.89,0,0,1,2.58,1c1.3.64,2.61,1.24,3.92,1.86-1.38.38-2.77,1.12-4.13,1.07a60.26,60.26,0,0,1-8.55-1c-.32-.05-.42-1.36-.63-2.09Zm-48,1.09c.16-.52,1.73-1.15,1.84-1a7.25,7.25,0,0,1,1.56,2.71c.18.65-.26,1.48-.43,2.23-1.31,0-2.45-.27-2.84-1A4.15,4.15,0,0,1,1874.53,236.47Zm-24.2-8.37a14.87,14.87,0,0,1-.22-2.33l5.39-.39C1855.35,229.69,1852.51,228.19,1850.33,228.1Zm1.06-26.59c1-.78,2-1.43,3.06-2.13.18.9.83,2.21.46,2.62a11.45,11.45,0,0,1-3.46,2.33c-.52.27-1.29,0-2,0A5.06,5.06,0,0,1,1851.39,201.51Zm-20,53.88a7.81,7.81,0,0,1,.44,1.61l-3.38-.62A4.35,4.35,0,0,1,1831.44,255.39ZM1780.13,207a65.61,65.61,0,0,1,2.87-8.14,56.84,56.84,0,0,1,4,9.78c-1.69.57-3.37,1.49-5.08,1.53C1781.31,210.21,1779.93,208,1780.13,207Zm-4.6,3.44a4.31,4.31,0,0,1-.17.92l-3.36-1.5A6.75,6.75,0,0,1,1775.53,210.46Zm-20-2.08a19.57,19.57,0,0,1,3.5.75c-1,.42-2,1.15-3,1.15s-2-.73-3-1.15Zm-4.54-5.89c0,.06-.43.44-.67.68l-1.29-2.29A2.92,2.92,0,0,1,1751,202.49Zm-1.54,7,1.58,1.42a5.55,5.55,0,0,1-2.75.24Zm-11.17-4.62c.72-.61,3.29-.44,3.4-.1a30.69,30.69,0,0,1,.85,5.64c-3.31,2.06-5.29.49-6.32-1.72C1735.79,207.84,1737.17,205.74,1738.25,204.84Zm-28,8.85c2-1.49,3.88-3.42,6.15-4.16s4.72-.15,7.1-.15a60.34,60.34,0,0,1,7.06,1.05c.55.12,1,.85,1.44,1.3-.72.22-1.57.8-2.13.59-6.47-2.4-12.44-.69-18.31,2.05l-1.43.63C1710.16,214.55,1710,213.87,1710.25,213.69Zm-15.19,1.24c.16-2,.61-4,.94-6.05,1.53.18,4.37,8,3.69,8.2a8.19,8.19,0,0,1-3.84.18C1695.42,217.17,1695,215.72,1695.06,214.93Zm-11.29,34.45,2,1.24-2.25,2.76A10.26,10.26,0,0,1,1683.77,249.38Zm-7.77,4.5c-.73.27-1.15,0-1.16-.19,0-1.56,0-3.11,0-4.67.69.26,2,.57,2,.77A30.84,30.84,0,0,1,1676,253.88Zm-9-52.45c2.79-.52,5.64-.72,8.47-1.05a18.07,18.07,0,0,1,4.5,2.32,21.61,21.61,0,0,1-4.15,1.62,37.93,37.93,0,0,1-8.2.79c-1.5-.06-3-1.31-4.43-2A18,18,0,0,1,1667,201.43Zm-26.82,11.66,2.29-1.71a4.59,4.59,0,0,1,2.34,1.66Zm9.79,32.69,1.92-2.4c.52,1.33,1,2.66,1.58,4A7.56,7.56,0,0,1,1650,245.78Zm5.5-40.4c4.47,2.31,4.57,4.25,1.24,6a8.74,8.74,0,0,1-3.08,1c-1.7.16-3.44,0-5.16,0,.73-2.06,1-4.45,2.33-6.06C1651.59,205.37,1653.89,205.65,1655.5,205.38ZM1637,203.05a74.67,74.67,0,0,1,9-4.55c.49-.21,1.66,1.21,2.51,1.88.24,1.33.14,2.79-.3,2.9-3.75.95-7.57,1.65-11.37,2.43C1636.86,204.79,1636.55,203.3,1637,203.05ZM1618,201.14a22.06,22.06,0,0,1,3.45-.75c.09,0,.34.22.32.3a3.21,3.21,0,0,1-.3.69,27.63,27.63,0,0,1-3.1,1.9A12.91,12.91,0,0,1,1618,201.14Zm-73.1,47.24-1.93-.85c.67-1.22,1.33-2.44,2-3.65A13.31,13.31,0,0,1,1544.93,248.38Zm44.57,7c-2-.36-3.32-.43-4-1.12a38,38,0,0,1-4.87-5.87c-.73-1.11-.74-2.7-1.07-4.07a12,12,0,0,1,3.14,1.33c2.59,2.13,3.07,6.21,7.59,6.79C1592.51,252.72,1592.19,254.94,1589.5,255.38Zm2.37-54.95a29.75,29.75,0,0,1,4.13-.34l-2.5,1.29a9.43,9.43,0,0,1-3.5.42C1590.62,201.33,1591.18,200.58,1591.87,200.43Zm-10.57,8.14.7.31c4.66,1.16,8.82,1.82,13,2.55.13,0,.32,1.11.12,1.29-1.93,1.68-13-.94-14.07-3.3C1580.94,209.22,1581.2,208.86,1581.3,208.57Zm-10.24-6.19c.8-.36,1.62-.67,2.44-1a4.77,4.77,0,0,1-2.6,2c-.18.07-.51-.23-.78-.35A7.27,7.27,0,0,1,1571.06,202.38Zm-15.85-.33c1.17.4,2.37.71,3.56,1-.35.35-.88,1.06-1,1-1.29-.66-2.51-1.46-3.75-2.21C1554.73,201.61,1554.93,202,1555.21,202.05ZM1540,200.47c.37,0,.79,1,1,1.63.06.22-.5.63-.77,1-.23-.56-.45-1.12-.68-1.67a11.88,11.88,0,0,1-2.33-.33A9.72,9.72,0,0,1,1540,200.47Zm-3.67,12.95c3.61-1.09,7.28-1.94,10.86-3.11,1-.32,1.62-1.67,2.61-2.09.75-.33,1.81.08,2.73.16A145,145,0,0,0,1567,205.7c1.42-.38,4.44,4.43,4.32-1.17,1.94.83,3.92,1.59,5.79,2.54a20.44,20.44,0,0,1,2.86,2.11c-1.19.4-2.39,1.16-3.58,1.14-13.47-.23-26.78.78-39.73,4.82-.49.16-1.12-.17-1.69-.27C1535.43,214.37,1535.77,213.58,1536.3,213.42Zm-18.52,35.21c2.16-.43,4.6.55,6.92,1-.35.6-.58,1.56-1.08,1.73-2.33.81-4.74,1.4-7.12,2.07C1516.24,251.71,1516.75,248.83,1517.78,248.63ZM1515,217c-.29.44-.58.89-.86,1.34l-2.14-1.5A5.74,5.74,0,0,1,1515,217Zm-55-2.49-2,1.83-2.53-3A28,28,0,0,1,1460,214.55Zm-5.14,28.26a7.82,7.82,0,0,1,2.7,1.7,10.42,10.42,0,0,1,1.44,2.32,17.36,17.36,0,0,1-3,0,7.9,7.9,0,0,1-2-1,22.19,22.19,0,0,1-1.78-3.22A8.85,8.85,0,0,1,1454.86,242.81ZM1441,213.93s0,.9,0,.9c-1.33,0-2.67,0-4,0A5.7,5.7,0,0,1,1441,213.93Zm-59.92,2.8c-2,.19-4,.14-6,.17,1.43-.84,2.93-2.42,4.28-2.31s3.89-4.08,4.19.79C1382,215.85,1381.59,216.68,1381.08,216.73ZM1371.94,205c3.84-.26,7.69-.54,11.54-.54.84,0,1.68,1.09,2.52,1.68a23,23,0,0,1-3,1.22,10.78,10.78,0,0,1-2.48,0c-3.15,0-5.32.1-7.46-.07-.67-.05-1.28-.85-1.92-1.31C1371.39,205.64,1371.64,205,1371.94,205Zm-1.65,40.6,1.71,3.3c-1.33,0-2.54-.25-2.87-.95C1368.9,247.44,1369.86,246.39,1370.29,245.58Zm-11.44-36.28c.07,1.65-.8,3.33-1.27,5-1.2-.91-3-1.59-3.45-2.78-.77-2-.77-4.31-.93-6.51,0-.44.69-.93,1.06-1.39l1.74,2.26C1357.33,207.35,1358.81,208.3,1358.85,209.3Zm-7.56-11.72,3.71,2.3a8.24,8.24,0,0,1-3.58-.68C1351.2,199.12,1351.33,198.14,1351.29,197.58Zm-12.07,51.68c-1.62.33-3.88.7-3.22-2.38a16.5,16.5,0,0,1,4.94-.07C1340.37,247.67,1339.93,249.11,1339.22,249.26Zm-1.72-46.88c3.54.33,6.08.63,8.6,1a1.65,1.65,0,0,1,.85.83c-.51.75-1.07,2-1.71,2a24.94,24.94,0,0,1-7.42,0C1334.45,205.57,1338.68,203.63,1337.5,202.38ZM1336,222c2.89-1.55,5.17-.55,7,1.89-3,2.28-5.23,2.09-7.17-.25A1.73,1.73,0,0,1,1336,222Zm-5,32a14.35,14.35,0,0,1,2.69-1.51l1.37,4.37a14.12,14.12,0,0,1-4.87-.87C1330.39,255.33,1330.46,254.45,1330.94,254Zm-9.66-8.15c.77-1,2.76-1,4.22-1.49a10.31,10.31,0,0,1,2.86,4.13l-7.06,1.67C1321.25,248.7,1320.59,246.77,1321.28,245.87Zm-48.29-9c-.8-.47-2.25-.91-2.29-1.44a12,12,0,0,1,.8-4c.12-.41.65-.7,1-1,.83,1.17,1.49,1.88,1.43,2.52A24.45,24.45,0,0,1,1273,236.88Zm33,19.29,1-.79c.52.66,1,1.33,1.55,2A5.76,5.76,0,0,1,1306,256.17Zm-3.5-53.79a46.94,46.94,0,0,0,5.06-.95c-.06.36,0,.92-.2,1-1.2.7-2.45,1.31-3.71,1.9a1.81,1.81,0,0,1-1,0c-2.16-.42-4.31-.86-6.47-1.29Zm-15,30c0,.65,0,1.3,0,2-.83-.13-1.17-.76-1.5-1.39ZM1279,200.88a29,29,0,0,1-1,4.49s-.31,0-.48,0c-2.36,0-4.73,0-7.1-.11a8.1,8.1,0,0,1-.24-1.62C1273.42,203.58,1274.81,197.81,1279,200.88Zm-52.81,12.81a7.57,7.57,0,0,1,1.85-.29c2.32.2,4.64.49,7,.75l-6.5,1.23A4.6,4.6,0,0,1,1226.19,213.69Zm8.58,33.34a6.17,6.17,0,0,1-2.79.29c-.71-.12-1.32-.79-2-1.21l2.5-.73a33.29,33.29,0,0,1,3.32.32C1235.48,246.16,1235.22,246.88,1234.77,247Zm13.73-33.65a10.56,10.56,0,0,1-4.53,1.41c-.12,0-.36-.87-.55-1.33Zm-30-6c2.66-.07,5.31,0,8,0,4,0,7-.06,10,.05.53,0,1,.78,1.54,1.19-.51.25-1,.72-1.53.72-6,0-12,.07-17.93,0-.52,0-1-.77-1.54-1.19C1217.51,207.88,1218,207.42,1218.53,207.41Zm1.84,5.06c.86,0,1.75,1.05,2.63,1.63l-1.5,1.28a93.19,93.19,0,0,0-10.87-.16,28,28,0,0,1-3.63-.42,10.07,10.07,0,0,1,2.85-1.37A103,103,0,0,1,1220.37,212.47Zm-27.32-5c4.31-.13,8.63-.09,12.94,0a6.56,6.56,0,0,1,2,.74c-.68.41-1.36,1.15-2,1.17-3.82.12-7.63.06-11.45.06a39.68,39.68,0,0,1-4.5-.78C1191,208.19,1192,207.46,1193.05,207.43Zm-4.43,6c4.64-.43,9.29-.76,13.94-.9.46,0,1,1.48,1.44,2.27l-2,.07a117.69,117.69,0,0,0-13,.47,7.52,7.52,0,0,1-1.85-.3C1187.65,214.49,1188.09,213.49,1188.62,213.44ZM1115,218.62l-2,.76c-.17-.67-.35-1.34-.52-2A5.49,5.49,0,0,1,1115,218.62Zm-11.36,30.83c9.62-.1,19.25-.12,28.87,0,.84,0,1.66,1.16,2.49,1.79-.91.71-1.78,1.93-2.74,2a38.92,38.92,0,0,1-6.26-.39c-5.5-.18-10.51.29-15.52.42a28.81,28.81,0,0,1-6.54-1c-.71-.15-1.3-.86-1.94-1.31C1102.54,250.47,1103.08,249.45,1103.64,249.45Zm-27.64-.93c4.5,0,9,.52,13.5.86a10.5,10.5,0,0,1,3.5,2.35,17.63,17.63,0,0,1-2.63.63c-4.72.37-9.44.82-14.17.91-1,0-2.13-1.33-3.2-2C1074,250.28,1075,248.51,1076,248.52Zm-24.47.91a53.73,53.73,0,0,1,7,0,8.05,8.05,0,0,1,2.52,1.2,11,11,0,0,1-2.54,1.68,10.06,10.06,0,0,1-3,.07c-2,0-3.06.21-4-.08-.63-.2-1-1.09-1.54-1.68C1050.51,250.21,1051,249.46,1051.53,249.43Zm-24.25-43a14.19,14.19,0,0,1,2.64,1.5l-3.42.42C1026.44,207.38,1027,206.38,1027.28,206.46Zm-81.67,30.81c-.49-.75.36-2.38.61-3.61,1,.5,2.55.74,2.94,1.54.66,1.38.6,3.1.84,4.68A7.49,7.49,0,0,1,945.61,237.27Zm36-31.76a2.2,2.2,0,0,1,.35,1.21,1.41,1.41,0,0,1-1.05.63c-1.12.08-2.26,0-3.39,0A9.35,9.35,0,0,1,981.59,205.51Zm-7,43a36.89,36.89,0,0,1,6.38,1.37,13.42,13.42,0,0,1-6.46,1.45,9,9,0,0,1-2.54-.7C972.88,249.88,973.79,248.46,974.62,248.51Zm-75.93-56.07c6.22.55,12.41,1.39,18.62,1.9,6.42.53,13.07,0,19.25,1.42,4.77,1.13,9,4.62,13.41,7.17.54.31.66,1.32,1,2-.9.06-2.08.52-2.66.12-9.43-6.6-19.95-8.52-31.23-7.76-2.48.17-5-.59-7.55-.92-4.35-.34-7.72-.56-11-1.08-.89-.14-1.64-1.2-2.46-1.84C896.9,193.1,897.83,192.36,898.69,192.44Zm-7.15,10c2.2-.74,4.5-2.09,6.64-1.89,7,.64,13.84,1.86,20.74,2.87,2.2.32,4.39.66,6.58,1,2.33,0,3.71-.23,5,.07a8.66,8.66,0,0,1,2.52,1.71c-.86.4-1.77,1.25-2.56,1.15-7-.88-14-2.84-20.9-2.51-3.31.16-6.63,1.7-10.27.64-2.31-.68-4.81-.71-7.22-1.09-.38-.06-.94-.43-1-.73S891.25,202.49,891.54,202.4ZM886,202c.26,0,.61,1.24.92,1.9l-4,0A4.06,4.06,0,0,1,886,202Zm-16.22-1.31-3.32,2.68a5.12,5.12,0,0,1-1.92-3ZM799,253.52l1.5-1.14a9.47,9.47,0,0,1,1.17,1.83Zm3-8.62c.15,0,.46.85.7,1.31l-4.67.67A6.64,6.64,0,0,1,802,244.9Zm-18.36-43.41c-.11.29-.21.59-.32.89l-3.29-1.5A7.81,7.81,0,0,1,783.61,201.49ZM765.17,252.7l1.74-.91.09,2.09A2.43,2.43,0,0,1,765.17,252.7Zm-2.76-9.11a51,51,0,0,1,7-.29c-.3,1-.61,2-.92,3.08-1.42.66-2.38,1.1-3.24.94-1.78-.33-3.51-1-5.26-1.47C760.8,245.06,761.51,243.74,762.41,243.59Zm-16.91-5.21c2-.67,3.74-2.2,4.75-1.79,1.26.52,2.24,2.52,2.67,4.07a73.53,73.53,0,0,1,1.59,8.77c.07.43-.25,1.31-.47,1.33-1.33.15-3,.64-4,0-3.15-2.09-2.55-5.42-1.57-8.29.82-2.43.51-3.64-2-4.12a69.68,69.68,0,0,0-4.53,7.13c-.25.42-.91.58-1.38.87-.19-.39-.66-.91-.55-1.15C741.34,242.54,740.84,238.37,745.5,238.38Zm-9,14a14.83,14.83,0,0,1-1.83,5c-.56-1.39-1.6-2.79-1.58-4.17C733.16,249.45,735.07,251.55,736.5,252.38ZM727,234.09a11,11,0,0,1,5.27.18c.77.21,1.18,1.7,1.76,2.61-1.67.83-2.87,1.51-4,1.41a26.47,26.47,0,0,1-4.85-1.27C725.74,236,726.17,234.28,727,234.09Zm-9.8,6.29a21.15,21.15,0,0,1,2.78,2.56c.32.4,0,1.27,0,1.94a9.84,9.84,0,0,1-4-.43Zm-22.3-29.3c2-3.69,4.91,0,7.32-.7.67,2.43,1.45,4.84,1.95,7.31.16.82-.41,1.79-.64,2.69-1.5-1.1-2.42-2.19-2.42-3.28,0-2.85-.67-3.6-3.37-2.06-1.09.62-2.7.35-4.07.48A20.62,20.62,0,0,1,694.87,211.08Zm-10.16-2.63c.24-.08,1.17.91,1.23,1.46a48.41,48.41,0,0,1,.06,5,24.45,24.45,0,0,1-.07,6.82c0,.29-1.09.74-1.52.6A2.48,2.48,0,0,1,683,221c-.56-1.43-.75-3-1.39-4.39C680.18,213.4,681.51,209.53,684.71,208.45Zm-14,48.57c-.81.52-2.16.21-3.28.26l.6-3.4a10.07,10.07,0,0,1,4,.28C671.58,255.15,671.43,256.53,670.68,257ZM665.05,131c0-.86.76-1.72,1.16-2.57.6.86,1.61,1.67,1.72,2.58.49,4.33.76,8.69,1.06,13,.36,5,.8,10,1,15a27.85,27.85,0,0,1-.94,5.57c-.12.62-.57,1.65-.38,1.78,3.68,2.48,2.16,6.24,2.35,9.52.43,7.33.73,14.67,1.06,22,0,.7.05,1.93-.22,2-.81.27-2.27.46-2.58,0-1.26-1.74-3-3.69-3.09-5.62-.33-8.63,0-17.28-.19-25.92-.07-4.18-.62-8.36-1-12.54C665,146.9,665,138.92,665.05,131Zm-2.95,78.26c1.83.56,3.14,2.64,4.94,3.55a47.89,47.89,0,0,0,6.74,2.34l2.11.67c-.53.53-1,1.3-1.63,1.54a6.78,6.78,0,0,1-2.47.06c-3.57-.12-4.82,1.74-4.87,5.15,0,1.62-.92,3.24-1.42,4.86a5.24,5.24,0,0,1-2.29,1c-5.17.19-6.4,1.74-5.1,6.6.15.58.92,1.15.83,1.61-.38,2-1,3.87-1.5,5.81-.81-1.64-2.26-3.26-2.31-4.92-.09-3.56.77-7.14.8-10.71,0-3-.76-6-.84-9.06,0-1.08.93-2.19,1.44-3.28a28.56,28.56,0,0,1,.45,3.29c.1,3.15-.49,7.54,3.77,7.4,3.74-.13,2.83-4.48,3.35-7.39.6-3.38-1.73-4.1-3.73-5.33l-3-1.85C659,210,660.78,208.8,662.1,209.21Zm-8-64.12a74.13,74.13,0,0,1,2-9.14c.06-.27.8-.58,1.17-.52a1.28,1.28,0,0,1,.74,1c.09,1.49,0,3,0,4.49-.33,7.17-.56,13.36-1.1,19.51-.09,1.06-1.49,2-2.29,3-.54-1.26-1.56-2.52-1.52-3.76C653.21,154.77,653.5,149.91,654.06,145.09ZM652,188.88c.33-7,.58-13,1.1-19,.08-.89,1.47-1.68,2.25-2.51.55,1.06,1.6,2.15,1.57,3.2-.19,8.32-.46,16.65-1,24.95-.1,1.34-1.93,2.57-3,3.85-.63-1.32-1.75-2.62-1.79-4A36.83,36.83,0,0,1,652,188.88Zm-7.5,39.5c3.24,1.44,3.45,8.6.7,10.15-.36.2-2.13-1-2.09-1.4C643.4,234.19,644,231.29,644.5,228.38Zm-7,12.14c.64.15,1,1.47,1.48,2.26-.56.2-1.18.66-1.66.55-1.48-.37-2.9-1-4.34-1.45a3.2,3.2,0,0,0-1-.51c-.3-.55-.56-1.12-.84-1.68A49.52,49.52,0,0,1,637.52,240.52Zm-65.47,8.11c.55-1.47,1.34-2.84,2-4.25.64,1,1.71,1.88,1.83,2.92.22,1.91.73,4.58-2.91,3.58C572.33,249.79,571.88,249.09,572.05,248.63Zm-6.29-1c.24,1.25.48,2.51.71,3.76l-3.47-.52A9.27,9.27,0,0,1,565.76,247.64Zm-9.72,3.2,2.37.44-1.91,4.1A15.52,15.52,0,0,1,556,250.84Zm-4-46.4c.36.05.62.81.92,1.25l-2.5.69a3.74,3.74,0,0,1-2-2A24.41,24.41,0,0,1,552.08,204.44Zm-5.15,7.94,1.57,2a6.25,6.25,0,0,1-2.5-.65Zm-8.51-12.92,1.58,1.42a5.55,5.55,0,0,1-2.75.24ZM526,253.84c.23-.88.37-2.48.69-2.51a11.14,11.14,0,0,1,3.31.55A7.49,7.49,0,0,1,526,253.84Zm2.61-24.57c-1.21-.88-2.9-1.53-3.46-2.72s.18-2.76.35-4.17c1.5,0,3.25.46,3.36,1.14A27.23,27.23,0,0,1,528.61,229.27Zm-5.69-42.1c.08-.41,3.25-1,3.68-.43a9.09,9.09,0,0,1,2.15,5.35c0,.79-2.75,1.52-4.25,2.29-.83-.86-1.42-1.19-1.46-1.57A21,21,0,0,1,522.92,187.17Zm-88.48,66.21-1.31-.38,1.37-3.62C435.15,250.71,434.79,252,434.44,253.38Zm10.68-11.63,1.26-.37c.21.83.41,1.66.62,2.5A3.94,3.94,0,0,1,445.12,241.75Zm18.38,15.63a11.69,11.69,0,0,1-3.43-4.2c-.15-.27.75-1,.9-1.53.57-2.08,1-4.18,1.53-6.27.5,2.42,1.17,4.83,1.44,7.28A23.12,23.12,0,0,1,463.5,257.38Zm.06-22a7.34,7.34,0,0,1-.44-1.62l3.38.63A4.45,4.45,0,0,1,463.56,235.37Zm32.93-28c-2.59,0-3.58-.77-4-3a8.91,8.91,0,0,1,2.67.67l3.69,1.68A9.41,9.41,0,0,1,496.49,207.34Zm10.43,42c-.51.4-1.59.08-2.42.08-4.2-2.72-1.44-5.09-.41-7.45a2.91,2.91,0,0,1,2.49-.31,14.1,14.1,0,0,1,2.28,4.95C509,247.36,507.8,248.63,506.92,249.3Zm6.8-55.88a11.21,11.21,0,0,1,2.28.89c-.76.09-1.53.17-2.29.28-.57.08-1.14.19-1.71.29C512.58,193.71,513.19,193.34,513.72,193.42Zm-24.67,4.76c2.71-4.44,7.66-3.7,11.78-4.72,2-.5,4.3-.15,6.46-.06a33.84,33.84,0,0,1,3.71.54c-.13.45-.18,1.22-.41,1.28a27.35,27.35,0,0,1-4.39.81c-.54.05-1.13-.42-1.7-.65-5.55.33-10.84-1-12.62,5.46-.07.25-1.91,0-2.93,0C489,199.93,488.65,198.84,489.05,198.18Zm-3.11,4.75,2.06.95a6.47,6.47,0,0,1-.19,3.19c-.61-.52-1.46-.92-1.74-1.58A7.19,7.19,0,0,1,485.94,202.93Zm.53,10.63c1-1.31,2.67-2.13,4-3.16-.17,1.45-.4,2.89-.5,4.34a20.75,20.75,0,0,1-.08,3.45,15.66,15.66,0,0,1-1.61,3.19l-3.33-2.5C485.46,216.42,485.59,214.7,486.47,213.56Zm-2.57,22c1.13-.32,2.72.95,4.1,1.5l-4.5,3.35C481,238,481.66,236.17,483.9,235.53Zm-27.67-44.1c2.59.06,5.18.28,7.77.45,2.89,1.55,5.38,2.43,7.61,3.75.83.49,1.06,2,1.56,3.08-1.25-.14-3.11.2-3.66-.5-3.62-4.55-8.73-4.62-13.77-5.1-.26,0-.49-.45-.74-.68C455.41,192.08,455.83,191.42,456.23,191.43Zm-9.37-1.05,2.14,1.5a5.74,5.74,0,0,1-3-.16ZM454.25,203a11.62,11.62,0,0,0,6.36,1.31c4.91-.3,9.79-1.13,14.69-1.67.87-.1,2.43-.08,2.57.3a13.63,13.63,0,0,1,.39,3.71l-1.76-.24H464.39c-2.88,0-5.75,0-8.63,0-5,0-10.09-.06-15.14-.14a6.58,6.58,0,0,1-1.62-.46,3.63,3.63,0,0,1,.44-1.3C443.3,200.08,448.87,199.73,454.25,203ZM433,183.88a14.48,14.48,0,0,1,6.12-1.89c.23,2,.9,4.14.49,6-.16.74-2.8,1.42-4.23,1.28C431.77,188.94,433.36,185.9,433,183.88Zm-4.5,57.5a6,6,0,0,1-1.69,3A9.69,9.69,0,0,1,426,243,27.16,27.16,0,0,1,428.5,241.38Zm-10.23-9a22.62,22.62,0,0,1,3.7,1.05,9.26,9.26,0,0,1-.31,1.76L417,233.88C417.42,232.71,417.89,232.34,418.27,232.41Zm-7.36,9.38c-.5,1.22-.94,2.49-1.55,3.66-.16.3-.87.31-1.33.45l0-4A5.71,5.71,0,0,1,410.91,241.79Zm-27.6,3.59c.56.51,1.5,1,1.6,1.55a6.4,6.4,0,0,1-.67,2.45l-1.24-1.5A15.72,15.72,0,0,1,383.31,245.38Zm-4.37-17.89c.66.23,1.05,1.22,1.56,1.89a19.57,19.57,0,0,1-3.5-.75C377.66,228.21,378.48,227.33,378.94,227.49Zm-30.56,18.77c.21-.8.41-1.59.62-2.38a2.09,2.09,0,0,1,1,1.93C350,245.94,348.94,246.11,348.38,246.26Zm-1.27-37.71a22,22,0,0,1,6.53,2.08c.65.29.87,1.52,1.28,2.32a10.56,10.56,0,0,1-2.68.12c-2.27-.47-4.5-1.12-6.74-1.69C345.38,210.38,346.35,208.46,347.11,208.55Zm-83.49,32.71a13.89,13.89,0,0,1-1.55-3.11,7.68,7.68,0,0,1,.43-2.77c1.83.62,3.47,1.52,3.36,1.83A22.39,22.39,0,0,1,263.62,241.26Zm11.95-15.9c0-.11.84-.41,1.29-.62.21,1.21.43,2.42.64,3.64A4.66,4.66,0,0,1,275.57,225.36Zm58.2-27.72-2.27,2.74a15.82,15.82,0,0,1-1.12-3.89Zm-9.94,10.57a7.08,7.08,0,0,1-5.34-2.23c-.63-.74.82-3.23,1.34-4.93l5.17,1.83C326.43,205.53,326.71,207.92,323.83,208.21Zm-4.33-22.83a22.81,22.81,0,0,1,4.35,1.35c-.62.21-1.36.75-1.85.58C321,187,318.13,188.76,319.5,185.38Zm-67.16,9.1c7.59,3.36,14.25.39,20.89-2.84,2.53-1.23,5-2.42,7.17.64s2.36-.82,3.63-.91c6.66-.49,13-4.58,20.13-.24,3.46,2.1,8.51,1.59,12.84,2.23a25.39,25.39,0,0,0,2.62.13,14.92,14.92,0,0,1-1.74,2.44,12.4,12.4,0,0,1-2.38,1.45c-5.52,2.16-10,1.5-14.27-1.91-3.08-2.44-11.11-1.54-14,1.26-3,3-5.76,2.26-9,.51-1.57-.85-4.37-1.52-5.51-.71-6.45,4.58-13.56,2.94-20.5,2.71-.76,0-1.7-1.86-2.05-3C250,195.87,251.91,194.29,252.34,194.48ZM248,251.94a19,19,0,0,1,1-3.06c.46-2.13.64-3.79,1.47-4.25s3.17,0,3.38.57a24.65,24.65,0,0,1,1.11,6.48c.14,2.22.6,4.62-3.08,4.77S247.63,254.81,248,251.94Zm-17.17-47.56,2.14,1.5a5.74,5.74,0,0,1-3-.16Zm-28.78,54.41-3.08-.91a13.85,13.85,0,0,1,.06-5.29c.11-.49,1.18-1.26,1.46-1.13.91.41,2.33,1.15,2.35,1.81A28.47,28.47,0,0,1,202.08,258.79ZM199,187.88a5,5,0,0,1,2-.52c3.08-.55,3.89,1.42,3.88,3.8,0,.41-2.16,1.41-2.84,1.1C200.33,191.47,197,191.34,199,187.88Zm-35-2a6.67,6.67,0,0,1-4,2c-.15,0-.46-.85-.7-1.31Zm-1.39,47.57c.15-.09.91.82,1.39,1.27l-5,1.16C158.28,231.5,161.3,234.23,162.61,233.45Zm-9.18-12c0,.1-.84.4-1.29.61-.21-1.21-.43-2.42-.64-3.63A4.62,4.62,0,0,1,153.43,221.4Zm-7.11,20.11c3.09.36,6.12,1.2,9.18,1.87,2.26,2.35,1.39,3.58-1.06,2.92-3.46-.92-8,2.71-10.31-2.44C143.94,243.44,145.65,241.43,146.32,241.51Zm-25.09-23.13,1.77,3.5a4,4,0,0,1-2.91-1.51C119.91,220.1,120.82,219.06,121.23,218.38ZM118,169.88a3.45,3.45,0,0,1-2.37,1.62l-.3-3Zm-16.91,7.67a76.57,76.57,0,0,1,2-9.11c.13-.47,1.07-.91,1.69-1a1.54,1.54,0,0,1,1.19,1,23.74,23.74,0,0,1,.06,3.48,43.34,43.34,0,0,1,0,5.13,10.89,10.89,0,0,1-1.21,4,2.67,2.67,0,0,1-2.49,0A5.15,5.15,0,0,1,101.09,177.55ZM103,254.88a10.63,10.63,0,0,1-2.29,3.5c-.53-.88-1.06-1.75-1.6-2.62C100.33,255.12,101,252,103,254.88Zm-26.45-12.5a6.76,6.76,0,0,1,.9,0c0,1,0,2,0,3A3.47,3.47,0,0,1,76.55,242.38Zm-6.88-49.84c-.22.45-.45.89-.67,1.34a2.46,2.46,0,0,1-2-.65Zm0,56.05c-.56.93-1.09,2.63-1.68,2.64a27.34,27.34,0,0,1-5.54-.85c.09-1.34.7-2.89,1.26-2.87A37.52,37.52,0,0,1,69.72,248.59Zm-9.17-14.26,3.44.54-1,6C58.21,240,60.14,237,60.55,234.33Zm-17.4,8.24c.07-.8,1.54-1.91,2.54-2.12C50,239.59,54.54,237.36,58,242c.59.79.33,2.21.46,3.35a33.12,33.12,0,0,1-6.18.82c-1.37.11-2.74.31-4.11.46s-3.34.86-3.89.25A6.11,6.11,0,0,1,43.15,242.57ZM36.77,203.1l-1,1.05c-.58-.76-1.15-1.52-1.73-2.27A4.74,4.74,0,0,1,36.77,203.1Z"/></g></g></g></svg>